<svg width="489" height="326" viewBox="0 0 489 326" fill="none" xmlns="http://www.w3.org/2000/svg">
<path d="M188.208 17H214.708C215.928 17 216.917 17.9887 216.917 19.2083V58.9583C216.917 60.178 215.928 61.1667 214.708 61.1667H188.208C186.989 61.1667 186 60.178 186 58.9583V19.2083C186 17.9887 186.989 17 188.208 17Z" stroke="black" stroke-width="4.41667"/>
<path d="M210.292 25.8333H192.625V36.875H210.292V25.8333Z" fill="#F7DF1E" stroke="black" stroke-width="4.41667" stroke-linecap="round" stroke-linejoin="round"/>
<path d="M205.875 52.3333V43.5M210.292 47.9167H201.458H210.292Z" stroke="black" stroke-width="4.41667" stroke-linecap="round" stroke-linejoin="round"/>
<path d="M193.729 51.2292C193.729 50.0095 194.718 49.0208 195.938 49.0208C197.157 49.0208 198.146 50.0095 198.146 51.2292C198.146 52.4488 197.157 53.4375 195.938 53.4375C194.718 53.4375 193.729 52.4488 193.729 51.2292Z" fill="black"/>
<path d="M190.417 43.5C190.417 42.2804 191.405 41.2917 192.625 41.2917C193.845 41.2917 194.833 42.2804 194.833 43.5C194.833 44.7196 193.845 45.7083 192.625 45.7083C191.405 45.7083 190.417 44.7196 190.417 43.5Z" fill="black"/>
<path d="M284 35.4062C284 34.2376 284.464 33.1169 285.291 32.2906C286.117 31.4642 287.238 31 288.406 31H294.281C295.45 31 296.571 31.4642 297.397 32.2906C298.223 33.1169 298.688 34.2376 298.688 35.4062V41.2812C298.688 42.4499 298.223 43.5706 297.397 44.3969C296.571 45.2233 295.45 45.6875 294.281 45.6875H288.406C287.238 45.6875 286.117 45.2233 285.291 44.3969C284.464 43.5706 284 42.4499 284 41.2812V35.4062ZM284 54.5C284 52.9419 284.619 51.4475 285.721 50.3457C286.823 49.244 288.317 48.625 289.875 48.625H325.125C326.683 48.625 328.177 49.244 329.279 50.3457C330.381 51.4475 331 52.9419 331 54.5V69.1875C331 70.7456 330.381 72.24 329.279 73.3418C328.177 74.4435 326.683 75.0625 325.125 75.0625H289.875C288.317 75.0625 286.823 74.4435 285.721 73.3418C284.619 72.24 284 70.7456 284 69.1875V54.5ZM286.938 63.3125V69.1875C286.938 69.9666 287.247 70.7137 287.798 71.2646C288.349 71.8155 289.096 72.125 289.875 72.125H325.125C325.904 72.125 326.651 71.8155 327.202 71.2646C327.753 70.7137 328.062 69.9666 328.062 69.1875V63.3125H286.938ZM328.062 60.375V54.5C328.062 53.7209 327.753 52.9738 327.202 52.4229C326.651 51.872 325.904 51.5625 325.125 51.5625H289.875C289.096 51.5625 288.349 51.872 287.798 52.4229C287.247 52.9738 286.938 53.7209 286.938 54.5V60.375H328.062ZM289.875 55.9688C289.875 55.5792 290.03 55.2056 290.305 54.9302C290.581 54.6547 290.954 54.5 291.344 54.5H317.781C318.171 54.5 318.544 54.6547 318.82 54.9302C319.095 55.2056 319.25 55.5792 319.25 55.9688C319.25 56.3583 319.095 56.7319 318.82 57.0073C318.544 57.2828 318.171 57.4375 317.781 57.4375H291.344C290.954 57.4375 290.581 57.2828 290.305 57.0073C290.03 56.7319 289.875 56.3583 289.875 55.9688ZM289.875 67.7188C289.875 67.3292 290.03 66.9556 290.305 66.6802C290.581 66.4047 290.954 66.25 291.344 66.25H308.969C309.358 66.25 309.732 66.4047 310.007 66.6802C310.283 66.9556 310.438 67.3292 310.438 67.7188C310.438 68.1083 310.283 68.4819 310.007 68.7573C309.732 69.0328 309.358 69.1875 308.969 69.1875H291.344C290.954 69.1875 290.581 69.0328 290.305 68.7573C290.03 68.4819 289.875 68.1083 289.875 67.7188Z" fill="black"/>
<path d="M317.941 239.154L324.377 243.02L317.843 246.893L311.31 250.772L311.408 243.033L311.513 235.294L317.941 239.154Z" fill="#E0E0E0"/>
<path d="M64.8609 277.68V307.777H108.871H157.419V277.68H64.8609Z" fill="#F5F5F5"/>
<path d="M60.975 269.263V277.68H160.653V269.263H108.871H60.975Z" fill="#E0E0E0"/>
<path d="M110.814 307.777H157.419V277.68H160.653V269.263H108.871V276.898L110.814 307.777Z" fill="#E0E0E0"/>
<path d="M96.5742 282.531H77.8031V287.063H96.5742V282.531Z" fill="#E0E0E0"/>
<path d="M99.4952 292.728H75.3907V302.293H99.4952V292.728Z" fill="white"/>
<path d="M79.1006 239.206V269.302H123.111H171.659V239.206H79.1006Z" fill="#F5F5F5"/>
<path d="M75.2147 230.788V239.206H174.892V230.788H123.111H75.2147Z" fill="#E0E0E0"/>
<path d="M125.054 269.302H171.659V239.206H174.892V230.788H123.111V238.43L125.054 269.302Z" fill="#E0E0E0"/>
<path d="M110.814 244.057H92.0428V248.588H110.814V244.057Z" fill="#E0E0E0"/>
<path d="M113.735 254.254H89.6304V263.819H113.735V254.254Z" fill="white"/>
<path d="M327.389 195.176V195.365H326.489V195.215L326.971 194.752C327.012 194.723 327.046 194.685 327.07 194.641C327.093 194.597 327.107 194.548 327.108 194.498C327.108 194.387 327.037 194.329 326.887 194.329C326.833 194.325 326.778 194.335 326.728 194.356C326.679 194.378 326.635 194.411 326.6 194.452L326.443 194.329C326.5 194.261 326.571 194.208 326.651 194.173C326.731 194.138 326.819 194.122 326.906 194.126C327.167 194.126 327.337 194.263 327.337 194.479C327.335 194.554 327.316 194.628 327.281 194.695C327.246 194.762 327.196 194.819 327.134 194.863L326.808 195.176H327.389Z" fill="white"/>
<path d="M327.506 194.57C327.506 194.541 327.515 194.514 327.53 194.49C327.546 194.467 327.568 194.448 327.595 194.437C327.621 194.426 327.65 194.424 327.678 194.429C327.705 194.435 327.731 194.448 327.751 194.468C327.771 194.488 327.785 194.514 327.79 194.542C327.796 194.57 327.793 194.599 327.782 194.625C327.771 194.651 327.753 194.673 327.729 194.689C327.706 194.705 327.678 194.713 327.65 194.713C327.612 194.713 327.575 194.698 327.548 194.671C327.521 194.644 327.506 194.608 327.506 194.57V194.57ZM327.506 195.222C327.506 195.184 327.521 195.147 327.548 195.12C327.575 195.094 327.612 195.078 327.65 195.078C327.688 195.078 327.724 195.094 327.751 195.12C327.778 195.147 327.793 195.184 327.793 195.222C327.793 195.26 327.778 195.296 327.751 195.323C327.724 195.35 327.688 195.365 327.65 195.365C327.612 195.365 327.575 195.35 327.548 195.323C327.521 195.296 327.506 195.26 327.506 195.222V195.222Z" fill="white"/>
<path d="M328.36 194.146V195.365H328.132V194.335H327.878V194.146H328.36Z" fill="white"/>
<path d="M329.684 195.085H329.469V195.365H329.26V195.085H328.608V194.948L329.208 194.166H329.449L328.888 194.915H329.26V194.668H329.469V194.915H329.684V195.085Z" fill="white"/>
<path d="M424.035 194.57H331.672V195.059H424.035V194.57Z" fill="white"/>
<path d="M361.397 194.811C361.398 195.09 361.317 195.363 361.162 195.596C361.008 195.829 360.788 196.01 360.531 196.117C360.273 196.225 359.989 196.253 359.716 196.199C359.442 196.145 359.19 196.011 358.993 195.813C358.796 195.616 358.661 195.365 358.607 195.091C358.553 194.817 358.581 194.533 358.689 194.276C358.796 194.018 358.978 193.798 359.21 193.644C359.443 193.49 359.716 193.408 359.995 193.409C360.367 193.411 360.722 193.559 360.985 193.822C361.247 194.084 361.395 194.44 361.397 194.811V194.811Z" fill="#EBEBEB"/>
<path d="M426.362 194.798C426.362 194.854 426.349 194.909 426.326 194.96C426.303 195.011 426.27 195.057 426.228 195.094C426.186 195.132 426.137 195.16 426.084 195.178C426.031 195.195 425.975 195.201 425.919 195.196C425.586 195.196 425.391 194.981 425.391 194.589C425.38 194.506 425.388 194.422 425.413 194.342C425.439 194.262 425.481 194.189 425.537 194.127C425.594 194.065 425.663 194.016 425.74 193.983C425.817 193.95 425.9 193.935 425.984 193.937C426.096 193.933 426.207 193.96 426.304 194.016L426.225 194.192C426.155 194.149 426.073 194.129 425.991 194.133C425.762 194.133 425.619 194.27 425.619 194.55C425.661 194.507 425.712 194.473 425.768 194.452C425.825 194.431 425.885 194.422 425.945 194.426C425.997 194.421 426.05 194.426 426.1 194.443C426.15 194.459 426.196 194.485 426.236 194.52C426.275 194.555 426.306 194.598 426.328 194.646C426.35 194.694 426.362 194.745 426.362 194.798V194.798ZM426.141 194.798C426.141 194.668 426.049 194.589 425.899 194.589C425.749 194.589 425.652 194.674 425.652 194.798C425.652 194.922 425.743 195 425.906 195C425.934 195.004 425.962 195.002 425.989 194.994C426.016 194.986 426.042 194.973 426.064 194.956C426.086 194.938 426.104 194.916 426.117 194.891C426.13 194.866 426.138 194.839 426.141 194.811V194.798Z" fill="white"/>
<path d="M426.473 194.381C426.472 194.362 426.475 194.343 426.482 194.325C426.489 194.307 426.5 194.291 426.513 194.277C426.527 194.264 426.543 194.253 426.561 194.246C426.578 194.239 426.598 194.236 426.617 194.237C426.655 194.237 426.691 194.252 426.718 194.279C426.745 194.306 426.76 194.343 426.76 194.381C426.76 194.419 426.745 194.455 426.718 194.482C426.691 194.509 426.655 194.524 426.617 194.524C426.598 194.525 426.578 194.522 426.561 194.515C426.543 194.508 426.527 194.498 426.513 194.484C426.5 194.471 426.489 194.455 426.482 194.437C426.475 194.419 426.472 194.4 426.473 194.381ZM426.473 195.033C426.471 195.013 426.473 194.994 426.48 194.976C426.486 194.957 426.497 194.941 426.511 194.927C426.524 194.913 426.541 194.903 426.559 194.896C426.578 194.89 426.597 194.887 426.617 194.889C426.635 194.888 426.654 194.891 426.672 194.898C426.689 194.905 426.705 194.916 426.718 194.929C426.731 194.943 426.741 194.959 426.747 194.977C426.753 194.995 426.755 195.014 426.754 195.033C426.758 195.054 426.758 195.075 426.753 195.096C426.748 195.117 426.738 195.137 426.725 195.153C426.712 195.17 426.695 195.183 426.675 195.193C426.656 195.202 426.635 195.207 426.613 195.207C426.592 195.207 426.571 195.202 426.551 195.193C426.532 195.183 426.515 195.17 426.502 195.153C426.488 195.137 426.479 195.117 426.474 195.096C426.469 195.075 426.469 195.054 426.473 195.033V195.033Z" fill="white"/>
<path d="M426.904 194.57C426.904 194.166 427.119 193.918 427.412 193.918C427.705 193.918 427.921 194.146 427.921 194.57C427.921 194.994 427.699 195.222 427.412 195.222C427.125 195.222 426.904 194.948 426.904 194.57ZM427.692 194.57C427.692 194.27 427.575 194.14 427.412 194.14C427.249 194.14 427.132 194.27 427.132 194.57C427.132 194.87 427.243 194.994 427.412 194.994C427.582 194.994 427.712 194.863 427.712 194.57H427.692Z" fill="white"/>
<path d="M428.071 194.57C428.071 194.166 428.292 193.918 428.579 193.918C428.866 193.918 429.088 194.146 429.088 194.57C429.088 194.994 428.873 195.222 428.579 195.222C428.286 195.222 428.071 194.948 428.071 194.57ZM428.859 194.57C428.859 194.27 428.749 194.14 428.579 194.14C428.41 194.14 428.299 194.27 428.299 194.57C428.299 194.87 428.416 194.994 428.579 194.994C428.742 194.994 428.859 194.863 428.859 194.57Z" fill="white"/>
<path d="M431.089 194.492H430.6V193.246H431.846V193.735H431.089V194.492Z" fill="white"/>
<path d="M431.846 196.109H430.6V194.863H431.089V195.62H431.846V196.109Z" fill="white"/>
<path d="M433.815 196.109H432.569V195.62H433.326V194.863H433.815V196.109Z" fill="white"/>
<path d="M433.815 194.492H433.326V193.735H432.569V193.246H433.815V194.492Z" fill="white"/>
<path d="M418.062 136.92C418.895 136.816 419.734 136.771 420.573 136.783H420.709V136.92C420.709 137.872 420.709 138.948 420.709 140.108V140.519L420.416 140.226C420.312 140.121 420.194 140.01 420.084 139.893C419.79 139.6 419.51 139.313 419.229 139.039H419.458L418.154 140.213L417.906 140.434V140.102C417.906 139.117 417.958 138.296 417.984 137.742C417.978 137.464 418.002 137.186 418.056 136.913C418.106 137.22 418.13 137.529 418.128 137.839C418.16 138.4 418.193 139.182 418.206 140.102L417.958 139.991L419.262 138.791L419.379 138.687L419.49 138.798L420.351 139.645L420.683 139.984L420.397 140.102C420.397 138.941 420.397 137.865 420.429 136.913L420.56 137.05C419.119 137.037 418.108 136.966 418.062 136.92Z" fill="white"/>
<path d="M427.301 137.337C427.301 137.337 427.106 137.598 426.695 138.113C426.284 138.628 425.665 139.385 424.908 140.239L424.628 140.552V140.128C424.628 139.626 424.628 139.098 424.628 138.543V138.394L424.68 138.511L423.565 137.429L423.278 137.148H423.676C424.784 137.148 425.73 137.22 426.362 137.259C426.679 137.262 426.995 137.286 427.308 137.331C427.308 137.331 426.864 137.331 426.212 137.389C425.56 137.448 424.687 137.468 423.676 137.468L423.787 137.194L424.915 138.263L424.967 138.309V138.537C424.967 139.091 424.967 139.619 424.967 140.121L424.68 140.01C425.384 139.241 426.023 138.609 426.506 138.126C426.988 137.644 427.269 137.35 427.301 137.337Z" fill="white"/>
<path d="M427.301 137.337C427.34 137.422 426.806 137.728 426.108 138.022C425.708 138.245 425.262 138.372 424.804 138.394C424.765 138.302 425.3 137.996 425.991 137.742C426.682 137.487 427.262 137.246 427.301 137.337Z" fill="white"/>
<path d="M431.807 136.92C431.807 136.92 431.963 136.861 432.256 136.92C432.675 137.005 433.049 137.236 433.313 137.572C433.514 137.823 433.647 138.121 433.701 138.439C433.755 138.756 433.726 139.081 433.619 139.385C433.474 139.747 433.223 140.058 432.9 140.277C432.576 140.496 432.194 140.613 431.803 140.613C431.413 140.613 431.031 140.496 430.707 140.277C430.383 140.058 430.133 139.747 429.987 139.385C429.884 139.079 429.86 138.752 429.918 138.435C429.976 138.118 430.115 137.821 430.32 137.572C430.585 137.235 430.962 137.004 431.383 136.92C431.67 136.874 431.833 136.92 431.833 136.92C431.696 136.967 431.556 137.006 431.415 137.037C431.051 137.152 430.734 137.381 430.509 137.689C430.351 137.912 430.25 138.17 430.215 138.44C430.18 138.711 430.211 138.986 430.307 139.241C430.393 139.454 430.524 139.646 430.69 139.805C430.855 139.964 431.053 140.086 431.269 140.164C431.486 140.241 431.716 140.272 431.945 140.254C432.174 140.236 432.397 140.169 432.599 140.059C432.8 139.949 432.976 139.798 433.115 139.615C433.254 139.432 433.353 139.222 433.405 138.998C433.457 138.774 433.461 138.542 433.417 138.316C433.373 138.091 433.282 137.877 433.15 137.689C432.926 137.383 432.611 137.154 432.25 137.037C432.1 137.008 431.952 136.969 431.807 136.92Z" fill="white"/>
<path d="M432.413 139.476C432.341 139.541 431.95 139.254 431.533 138.824L431.481 138.772V138.7C431.481 138.1 431.559 137.618 431.65 137.618C431.741 137.618 431.82 138.1 431.82 138.7L431.774 138.583C432.191 139.013 432.478 139.411 432.413 139.476Z" fill="white"/>
<path d="M388.592 139.358C388.592 139.45 376.334 139.528 361.208 139.528C346.082 139.528 333.824 139.45 333.824 139.358C333.824 139.267 346.075 139.189 361.208 139.189C376.341 139.189 388.592 139.261 388.592 139.358Z" fill="white"/>
<path d="M331.281 139.358C331.282 139.787 331.156 140.207 330.919 140.564C330.682 140.921 330.344 141.199 329.948 141.364C329.552 141.528 329.116 141.572 328.696 141.488C328.275 141.405 327.889 141.199 327.586 140.896C327.283 140.593 327.076 140.206 326.993 139.786C326.91 139.365 326.953 138.929 327.118 138.534C327.283 138.138 327.561 137.8 327.918 137.562C328.275 137.325 328.694 137.199 329.123 137.2C329.695 137.2 330.244 137.428 330.649 137.832C331.054 138.237 331.281 138.786 331.281 139.358V139.358Z" fill="white"/>
<path d="M383.715 249.162C383.656 249.234 383.148 248.927 382.581 248.51C382.013 248.093 381.596 247.623 381.661 247.545C381.726 247.467 382.228 247.773 382.802 248.229C383.376 248.686 383.78 249.064 383.715 249.162Z" fill="#263238"/>
<path d="M399.213 225.996C399.311 223.832 399.37 221.608 398.685 219.554C398 217.501 396.416 215.61 394.297 215.173C391.878 214.671 389.394 216.197 388.038 218.264C386.682 220.33 386.219 222.828 385.814 225.279C383.054 242.105 382.036 259.172 382.776 276.207L392.687 277.596C397.068 259.822 398.424 244.278 399.213 225.996Z" fill="#455A64"/>
<path d="M392.921 215.095C392.921 215.095 392.921 215.147 392.876 215.251L392.713 215.701C392.55 216.118 392.334 216.692 392.061 217.409C391.924 217.788 391.735 218.192 391.591 218.648C391.448 219.105 391.278 219.613 391.109 220.148C390.939 220.682 390.75 221.263 390.554 221.876C390.359 222.488 390.222 223.18 390.039 223.832C389.217 227.053 388.579 230.318 388.129 233.612C387.594 237.335 387.242 241.436 386.962 245.797C386.46 254.476 386.382 262.358 386.153 268.057C386.049 270.906 385.951 273.208 385.841 274.798C385.788 275.574 385.749 276.187 385.717 276.631C385.717 276.826 385.717 276.983 385.678 277.107C385.684 277.161 385.684 277.215 385.678 277.27C385.672 277.215 385.672 277.161 385.678 277.107C385.678 276.976 385.678 276.82 385.678 276.631C385.678 276.196 385.697 275.583 385.736 274.792C385.808 273.201 385.867 270.88 385.938 268.05C386.095 262.352 386.134 254.469 386.642 245.778C386.923 241.436 387.295 237.302 387.836 233.566C388.304 230.254 388.97 226.973 389.831 223.74L390.372 221.784L390.952 220.063C391.135 219.528 391.304 219.026 391.467 218.563C391.63 218.101 391.813 217.703 391.963 217.338L392.687 215.649L392.882 215.212C392.889 215.16 392.915 215.088 392.921 215.095Z" fill="#263238"/>
<path d="M393.841 215.101C394.357 215.71 394.765 216.402 395.047 217.149C395.808 219.195 396.117 221.381 395.953 223.558C395.692 229.035 395.197 236.598 394.551 244.904C393.906 253.211 393.169 260.761 392.595 266.205C392.302 268.93 392.048 271.128 391.865 272.647C391.767 273.384 391.696 273.951 391.637 274.394C391.637 274.577 391.591 274.727 391.572 274.851C391.577 274.903 391.577 274.955 391.572 275.007C391.565 274.953 391.565 274.898 391.572 274.844C391.572 274.72 391.572 274.57 391.572 274.388C391.611 273.957 391.669 273.371 391.735 272.634C391.885 271.076 392.093 268.885 392.387 266.179C392.908 260.735 393.593 253.204 394.245 244.878C394.897 236.552 395.431 229.008 395.757 223.551C395.938 221.403 395.672 219.241 394.975 217.201C394.66 216.469 394.28 215.766 393.841 215.101Z" fill="#263238"/>
<path d="M400.706 240.738C400.056 240.691 399.42 240.528 398.828 240.255C398.198 240.091 397.604 239.813 397.075 239.434C398.354 239.646 399.584 240.088 400.706 240.738V240.738Z" fill="#263238"/>
<path d="M401.899 230.645C401.364 231.075 400.76 231.41 400.113 231.636C399.504 231.967 398.842 232.188 398.157 232.288C398.691 231.857 399.296 231.519 399.943 231.29C400.553 230.964 401.215 230.745 401.899 230.645Z" fill="#263238"/>
<path d="M401.28 222.404C400.302 222.568 399.299 222.498 398.352 222.202C398.833 222.062 399.34 222.035 399.832 222.123C400.33 222.101 400.826 222.197 401.28 222.404Z" fill="#263238"/>
<path d="M391.057 217.116C390.978 217.168 390.541 216.627 390.092 215.91C389.774 215.499 389.551 215.022 389.44 214.515C389.524 214.462 389.955 215.004 390.411 215.721C390.867 216.438 391.141 217.07 391.057 217.116Z" fill="#263238"/>
<path d="M387.679 222.104C387.231 222.266 386.75 222.318 386.277 222.254C385.8 222.298 385.319 222.226 384.876 222.045C385.326 221.882 385.809 221.83 386.284 221.895C387.06 221.915 387.686 222.006 387.679 222.104Z" fill="#263238"/>
<path d="M385.254 232.073C384.736 232.051 384.231 231.913 383.774 231.669C382.991 231.356 382.391 231.017 382.424 230.932C382.942 230.953 383.449 231.094 383.904 231.343C384.68 231.656 385.293 231.982 385.254 232.073Z" fill="#263238"/>
<path d="M384.999 240.458C384.999 240.555 384.452 240.758 383.735 240.908C383.315 241.048 382.867 241.081 382.431 241.005C382.431 240.908 382.972 240.712 383.689 240.562C384.11 240.418 384.561 240.382 384.999 240.458Z" fill="#263238"/>
<path d="M383.852 254.176C383.852 254.273 383.272 254.463 382.515 254.593C381.759 254.723 381.133 254.762 381.114 254.665C381.094 254.567 381.7 254.384 382.457 254.247C383.213 254.11 383.839 254.078 383.852 254.176Z" fill="#263238"/>
<path d="M383.096 261.745C383.141 261.83 382.646 262.189 381.981 262.534C381.316 262.88 380.748 263.102 380.677 263.017C380.605 262.932 381.127 262.573 381.792 262.221C382.457 261.869 383.05 261.661 383.096 261.745Z" fill="#263238"/>
<path d="M389.277 270.339C389.192 270.391 388.762 269.785 388.305 268.996C387.984 268.54 387.762 268.023 387.653 267.476C387.738 267.431 388.175 268.031 388.625 268.82C388.948 269.274 389.17 269.792 389.277 270.339V270.339Z" fill="#263238"/>
<path d="M391.063 256.06C391.135 256.132 390.646 256.712 389.981 257.364C389.316 258.016 388.716 258.492 388.677 258.42C388.638 258.348 389.094 257.768 389.759 257.116C390.424 256.464 390.998 255.988 391.063 256.06Z" fill="#263238"/>
<path d="M390.665 248.568C390.594 248.634 390.144 248.262 389.661 247.74C389.179 247.219 388.846 246.743 388.918 246.678C388.99 246.612 389.44 246.978 389.922 247.499C390.405 248.021 390.737 248.503 390.665 248.568Z" fill="#263238"/>
<path d="M391.898 238.991C391.969 239.056 391.565 239.643 390.991 240.295C390.418 240.947 389.896 241.397 389.824 241.331C389.753 241.266 390.157 240.679 390.731 240.027C391.304 239.375 391.852 238.925 391.898 238.991Z" fill="#263238"/>
<path d="M392.582 232.047C392.517 232.112 391.93 231.669 391.324 231.056C390.718 230.443 390.248 229.882 390.313 229.81C390.379 229.739 390.965 230.189 391.572 230.801C392.178 231.414 392.654 231.975 392.582 232.047Z" fill="#263238"/>
<path d="M393.938 222.651C394.023 222.704 393.743 223.303 393.286 224.06C392.83 224.816 392.439 225.364 392.354 225.286C392.269 225.207 392.55 224.634 393.006 223.877C393.462 223.121 393.86 222.599 393.938 222.651Z" fill="#263238"/>
<path d="M396.494 213.947C396.418 214.454 396.226 214.935 395.934 215.356C395.536 216.086 395.151 216.66 395.06 216.594C395.14 216.089 395.332 215.608 395.621 215.186C396.018 214.456 396.416 213.902 396.494 213.947Z" fill="#263238"/>
<path d="M399.389 217.905C399.428 217.99 399.037 218.27 398.502 218.557C397.968 218.844 397.505 218.942 397.466 218.857C397.427 218.772 397.818 218.492 398.352 218.237C398.887 217.983 399.343 217.814 399.389 217.905Z" fill="#263238"/>
<path d="M399.461 249.162C398.78 249.172 398.107 249.011 397.505 248.692C396.864 248.481 396.288 248.111 395.829 247.617C397.048 248.101 398.255 248.616 399.448 249.162H399.461Z" fill="#263238"/>
<path d="M398.274 255.78C398.274 255.877 397.694 256.073 396.97 256.216C396.246 256.36 395.588 256.406 395.568 256.308C395.549 256.21 396.149 256.014 396.872 255.871C397.326 255.73 397.806 255.699 398.274 255.78V255.78Z" fill="#263238"/>
<path d="M396.82 267.131C395.657 266.431 394.786 265.333 394.369 264.04C394.82 264.518 395.228 265.035 395.588 265.586C396.043 266.064 396.455 266.581 396.82 267.131V267.131Z" fill="#263238"/>
<path d="M380.898 272.327C380.833 272.249 381.237 271.799 381.792 271.323C382.346 270.847 382.861 270.515 382.926 270.593C382.991 270.671 382.587 271.115 382.026 271.591C381.466 272.067 380.957 272.399 380.898 272.327Z" fill="#263238"/>
<path d="M376.315 247.551C375.663 245.537 374.463 243.189 372.351 243.157C371.722 243.19 371.114 243.393 370.591 243.743C370.068 244.093 369.649 244.577 369.378 245.145C368.798 246.27 368.522 247.526 368.576 248.79C368.844 257.757 370.381 266.641 373.14 275.177H380.879C380.781 265.789 379.242 256.472 376.315 247.551V247.551Z" fill="#455A64"/>
<path d="M362.329 234.876C361.247 230.547 358.02 228.213 354.277 227.998C350.854 228.598 349.531 231.962 349.126 235.411C348.722 238.86 349.778 242.29 350.848 245.595C354.238 256.21 357.631 266.824 361.025 277.439L370.649 276.389C367.604 262.169 365.857 248.986 362.329 234.876Z" fill="#455A64"/>
<path d="M372.351 243.157C372.104 243.504 371.886 243.87 371.699 244.252C371.306 245.346 371.183 246.518 371.34 247.669C371.49 249.142 371.653 250.929 371.901 252.852C372.149 254.776 372.507 256.927 372.937 259.144C373.811 263.591 374.802 267.581 375.422 270.482C375.741 271.936 375.982 273.09 376.132 273.931C376.197 274.309 376.25 274.622 376.295 274.877C376.311 274.987 376.311 275.099 376.295 275.209C376.295 275.209 376.243 275.105 376.191 274.89C376.139 274.675 376.054 274.336 375.963 273.964C375.761 273.103 375.48 271.943 375.148 270.541C374.496 267.653 373.44 263.675 372.54 259.216C372.103 256.986 371.764 254.847 371.529 252.891C371.405 251.913 371.321 250.987 371.242 250.114C371.164 249.24 371.079 248.438 371.034 247.688C370.898 246.501 371.066 245.298 371.523 244.194C371.719 243.791 372.002 243.437 372.351 243.157V243.157Z" fill="#263238"/>
<path d="M354.414 227.724C353.989 228.214 353.601 228.735 353.254 229.282C352.365 230.819 351.862 232.549 351.787 234.322C351.744 236.953 352.148 239.572 352.98 242.068C353.821 244.93 354.753 248.073 355.725 251.372C357.642 257.97 359.382 263.936 360.647 268.324L362.101 273.462C362.258 274.049 362.388 274.512 362.479 274.87C362.534 275.031 362.571 275.197 362.59 275.366C362.518 275.213 362.459 275.053 362.414 274.89C362.303 274.538 362.153 274.081 361.971 273.501L360.406 268.396C359.102 264.034 357.342 258.075 355.386 251.496L352.667 242.179C351.838 239.645 351.456 236.987 351.539 234.322C351.636 232.518 352.185 230.767 353.136 229.23C353.474 228.66 353.906 228.15 354.414 227.724V227.724Z" fill="#263238"/>
<path d="M368.55 275.359C368.465 275.213 368.393 275.061 368.334 274.903C368.21 274.59 368.002 274.146 367.787 273.547C367.33 272.366 366.737 270.626 366.131 268.435C365.524 266.244 364.918 263.617 364.338 260.676C363.757 257.736 363.164 254.495 362.512 251.105C361.86 247.714 361.097 244.513 360.237 241.651C359.488 239.112 358.548 236.634 357.426 234.238C356.666 232.621 355.795 231.059 354.818 229.563C354.492 229.022 354.166 228.63 354.01 228.35C353.907 228.216 353.818 228.071 353.743 227.92C353.861 228.041 353.97 228.172 354.069 228.311C354.264 228.578 354.584 228.963 354.936 229.484C355.957 230.959 356.862 232.511 357.642 234.127C358.81 236.52 359.785 239.004 360.556 241.553C361.491 244.666 362.264 247.826 362.871 251.02C363.523 254.417 364.109 257.651 364.657 260.598C365.205 263.545 365.798 266.172 366.372 268.357C366.946 270.541 367.5 272.269 367.917 273.488C368.113 274.088 368.295 274.544 368.4 274.864C368.466 275.023 368.517 275.189 368.55 275.359V275.359Z" fill="#263238"/>
<path d="M351.017 244.004C351.017 244.102 350.515 244.311 349.85 244.474C349.185 244.637 348.618 244.689 348.598 244.591C348.579 244.494 349.094 244.291 349.765 244.128C350.437 243.965 350.998 243.913 351.017 244.004Z" fill="#263238"/>
<path d="M350 237.439C349.473 237.588 348.924 237.647 348.377 237.615C347.832 237.692 347.279 237.674 346.74 237.563C347.249 237.331 347.806 237.226 348.364 237.256C348.916 237.179 349.478 237.242 350 237.439Z" fill="#263238"/>
<path d="M351.082 231.46C351.017 231.532 350.496 231.193 349.915 230.697C349.335 230.202 348.911 229.745 348.976 229.674C349.042 229.602 349.563 229.934 350.144 230.43C350.724 230.925 351.148 231.362 351.082 231.46Z" fill="#263238"/>
<path d="M354.036 225.885C354.134 225.885 354.108 226.374 354.095 226.942C354.082 227.509 354.095 227.978 353.977 227.991C353.86 228.004 353.723 227.535 353.743 226.929C353.762 226.322 353.925 225.866 354.036 225.885Z" fill="#263238"/>
<path d="M360.015 228.5C360.1 228.559 359.865 229.035 359.493 229.563C359.122 230.091 358.756 230.476 358.678 230.417C358.6 230.358 358.835 229.889 359.2 229.361C359.565 228.832 359.937 228.448 360.015 228.5Z" fill="#263238"/>
<path d="M363.907 235.268C363.946 235.359 363.451 235.646 362.799 235.92C362.147 236.194 361.586 236.324 361.547 236.233C361.508 236.141 362.01 235.854 362.662 235.581C363.314 235.307 363.875 235.176 363.907 235.268Z" fill="#263238"/>
<path d="M366.274 242.225C365.339 242.862 364.197 243.121 363.079 242.948C363.59 242.746 364.125 242.61 364.67 242.544C365.188 242.368 365.728 242.26 366.274 242.225V242.225Z" fill="#263238"/>
<path d="M355.431 240.249C355.333 240.216 355.431 239.74 355.581 239.173C355.731 238.606 355.972 238.176 356.07 238.208C356.168 238.241 356.07 238.717 355.914 239.277C355.757 239.838 355.523 240.275 355.431 240.249Z" fill="#263238"/>
<path d="M356.944 248.986C356.974 248.477 357.121 247.981 357.374 247.538C357.707 246.776 358.026 246.195 358.137 246.234C358.106 246.742 357.956 247.236 357.7 247.675C357.368 248.412 357.029 249.025 356.944 248.986Z" fill="#263238"/>
<path d="M353.201 251.372C352.725 251.368 352.254 251.266 351.819 251.072C351.082 250.837 350.483 250.629 350.515 250.531C350.548 250.433 351.167 250.498 351.93 250.733C352.693 250.968 353.24 251.287 353.201 251.372Z" fill="#263238"/>
<path d="M355.34 258.498C355.399 258.577 354.981 258.968 354.421 259.372C353.86 259.776 353.351 260.024 353.293 259.959C353.234 259.894 353.645 259.49 354.212 259.085C354.779 258.681 355.301 258.42 355.34 258.498Z" fill="#263238"/>
<path d="M357.087 265.599C357.087 265.697 356.598 265.899 355.946 266.055C355.294 266.212 354.747 266.27 354.727 266.172C354.708 266.075 355.21 265.873 355.862 265.716C356.514 265.56 357.061 265.501 357.087 265.599Z" fill="#263238"/>
<path d="M366.463 248.158C366.509 248.236 366.072 248.588 365.439 248.81C364.807 249.031 364.246 249.077 364.233 248.986C364.22 248.895 364.709 248.705 365.316 248.477C365.922 248.249 366.424 248.073 366.463 248.158Z" fill="#263238"/>
<path d="M367.8 259.203C367.761 259.294 367.239 259.137 366.639 258.851C366.039 258.564 365.589 258.27 365.629 258.199C365.668 258.127 366.189 258.264 366.789 258.544C367.389 258.824 367.845 259.118 367.8 259.203Z" fill="#263238"/>
<path d="M370.166 267.111C369.632 267.086 369.11 266.946 368.634 266.701C367.826 266.381 367.193 266.049 367.232 265.957C367.767 265.984 368.289 266.124 368.765 266.368C369.28 266.512 369.758 266.765 370.166 267.111V267.111Z" fill="#263238"/>
<path d="M357.465 273.305C357.42 273.214 358.046 272.79 358.769 272.217C359.493 271.643 360.073 271.128 360.139 271.199C360.204 271.271 359.747 271.897 358.991 272.503C358.566 272.906 358.038 273.184 357.465 273.305V273.305Z" fill="#263238"/>
<path d="M363.718 269.276C363.614 269.276 363.477 268.754 363.236 268.142C362.994 267.529 362.747 267.033 362.825 266.974C362.903 266.916 363.314 267.346 363.568 268.011C363.822 268.676 363.816 269.276 363.718 269.276Z" fill="#263238"/>
<path d="M362.056 259.776C362.003 259.855 361.599 259.659 361.156 259.346C360.712 259.033 360.406 258.694 360.465 258.629C360.523 258.564 360.921 258.74 361.364 259.059C361.808 259.379 362.114 259.698 362.056 259.776Z" fill="#263238"/>
<path d="M376.628 244.872C376.687 244.956 376.295 245.341 375.754 245.745C375.213 246.15 374.724 246.397 374.665 246.326C374.607 246.254 374.998 245.856 375.539 245.458C376.08 245.061 376.569 244.793 376.628 244.872Z" fill="#263238"/>
<path d="M378.812 250.877C378.812 250.974 378.206 251.105 377.443 251.02C376.68 250.935 376.139 250.681 376.139 250.59C376.139 250.498 376.791 250.59 377.482 250.668C378.173 250.746 378.812 250.779 378.812 250.877Z" fill="#263238"/>
<path d="M369.384 252.226C369.384 252.318 368.836 252.52 368.08 252.572C367.324 252.624 366.776 252.494 366.776 252.396C366.776 252.298 367.363 252.265 368.08 252.22C368.797 252.174 369.365 252.128 369.384 252.226Z" fill="#263238"/>
<path d="M370.199 246.547C370.199 246.645 369.612 246.658 368.986 246.365C368.36 246.071 367.989 245.628 368.054 245.563C368.119 245.498 368.556 245.784 369.13 246.045C369.704 246.306 370.212 246.456 370.199 246.547Z" fill="#263238"/>
<path d="M379.634 257.325C379.581 257.403 378.982 257.129 378.33 256.705C377.678 256.282 377.149 255.864 377.202 255.786C377.254 255.708 377.854 255.975 378.506 256.406C379.158 256.836 379.686 257.24 379.634 257.325Z" fill="#263238"/>
<path d="M402.669 274.173H352.308V283.098H402.669V274.173Z" fill="#F7DF1E"/>
<path d="M356.07 281.325L362.193 307.998H392.211L398.907 281.325H356.07Z" fill="#F7DF1E"/>
<path d="M402.643 283.105C402.643 283.203 391.285 283.287 377.273 283.287C363.262 283.287 351.897 283.203 351.897 283.105C351.897 283.007 363.255 282.929 377.273 282.929C391.291 282.929 402.643 283.014 402.643 283.105Z" fill="#263238"/>
<path d="M374.633 252.422C374.548 252.474 374.209 252.07 373.863 251.522C373.518 250.974 373.316 250.492 373.394 250.44C373.472 250.388 373.824 250.792 374.163 251.333C374.502 251.874 374.717 252.37 374.633 252.422Z" fill="#263238"/>
<path d="M374.652 259.6C374.627 259.134 374.716 258.668 374.913 258.244C375.154 257.527 375.422 256.973 375.513 257.005C375.604 257.038 375.513 257.657 375.252 258.355C374.991 259.053 374.744 259.633 374.652 259.6Z" fill="#263238"/>
<path d="M377.11 267.144C377.019 267.183 376.647 266.583 376.269 265.794C375.988 265.339 375.81 264.827 375.748 264.295C375.839 264.256 376.211 264.855 376.589 265.644C376.873 266.098 377.052 266.611 377.11 267.144V267.144Z" fill="#263238"/>
<path d="M371.79 273.188C371.718 273.123 372.018 272.653 372.442 272.145C372.866 271.636 373.309 271.271 373.381 271.33C373.453 271.389 373.153 271.864 372.729 272.373C372.305 272.882 371.868 273.273 371.79 273.188Z" fill="#263238"/>
<path d="M370.675 262.195C370.675 262.287 370.173 262.287 369.593 262.195C369.012 262.104 368.556 261.934 368.569 261.837C368.582 261.739 369.071 261.745 369.651 261.837C370.232 261.928 370.695 262.104 370.675 262.195Z" fill="#263238"/>
<path d="M259.763 126.984L225.207 114.596C227.47 141.549 229.667 169.174 222.502 195.254C221.726 198.078 221.041 201.611 223.284 203.489C224.627 204.611 226.544 204.65 228.298 204.598C231.879 204.489 235.455 204.226 239.023 203.809C242.818 203.372 246.847 202.629 249.566 199.929C251.828 197.66 252.741 194.413 253.478 191.303C258.641 170.275 260.758 148.614 259.763 126.984V126.984Z" fill="#263238"/>
<path d="M203.189 238.241L207.284 232.875L210.022 218.531L216.255 183.616C216.255 183.616 219 170.485 227.47 166.723L229.263 201.605L211.985 245.439L203.189 238.241Z" fill="#F7DF1E"/>
<path d="M240.327 157.23L235.235 163.254L227.47 166.71C227.47 166.71 210.374 199.362 209.944 199.668C209.514 199.975 206.743 209.286 208.268 217.22C209.794 225.155 210.876 235.535 210.707 243.007C210.537 250.479 200.764 275.059 200.164 280.706C199.564 286.352 197.556 308.174 197.556 308.174L283.933 307.522C283.149 302.037 282.079 296.596 280.725 291.222C280.725 291.222 280.419 269.55 277.217 265.429C277.217 265.429 279.656 259.783 279.356 256.582C279.056 253.38 292.174 236.285 294.769 230.332C297.364 224.379 307.587 210.772 307.737 201.031C307.887 191.29 306.362 183.023 301.478 176.307C296.595 169.592 287.747 165.015 284.083 162.576L276.911 153.416L240.327 157.23Z" fill="#F7DF1E"/>
<path d="M209.533 308.174C209.525 308.088 209.525 308 209.533 307.914C209.533 307.724 209.533 307.47 209.533 307.144C209.533 306.453 209.605 305.469 209.657 304.204C209.768 301.635 209.918 297.944 210.107 293.394C210.185 291.112 210.27 288.608 210.303 285.922C210.303 284.618 210.303 283.196 210.303 281.768C210.275 280.283 210.422 278.799 210.739 277.348C211.473 274.266 212.416 271.238 213.563 268.285C214.15 266.728 214.649 265.139 215.056 263.525C215.218 262.694 215.329 261.854 215.388 261.009L215.643 258.401C215.995 254.932 216.334 251.548 216.66 248.275C216.829 246.639 216.986 245.015 217.149 243.457C217.312 241.899 217.507 240.347 217.553 238.841C217.918 233.512 218.644 228.215 219.724 222.984C220.604 218.498 221.413 214.886 221.934 212.383C222.195 211.15 222.397 210.185 222.534 209.507L222.697 208.757C222.712 208.671 222.734 208.586 222.762 208.503C222.759 208.591 222.748 208.678 222.73 208.764C222.697 208.953 222.658 209.201 222.606 209.52C222.475 210.172 222.293 211.17 222.065 212.415C221.582 214.925 220.813 218.537 219.959 223.03C218.911 228.272 218.21 233.578 217.859 238.912C217.82 240.425 217.605 241.957 217.462 243.535C217.318 245.113 217.149 246.717 216.986 248.353L215.975 258.485L215.721 261.093C215.657 261.952 215.542 262.805 215.375 263.649C214.969 265.277 214.466 266.88 213.869 268.448C212.723 271.386 211.777 274.399 211.039 277.465C210.725 278.891 210.574 280.348 210.59 281.807C210.635 283.248 210.629 284.637 210.59 285.98C210.544 288.667 210.446 291.196 210.355 293.452C210.159 298.016 209.951 301.713 209.801 304.262C209.716 305.527 209.651 306.512 209.605 307.203C209.579 307.525 209.559 307.779 209.546 307.966C209.545 308.035 209.541 308.105 209.533 308.174V308.174Z" fill="#263238"/>
<path d="M222.984 208.197C222.984 207.499 226.048 195.665 232.451 185.774C238.854 175.884 240.275 167.251 240.275 167.251L240.379 154.485L240.927 156.128L273.397 151.421L274.381 156.115L252.65 175.747C252.65 175.747 242.609 177.703 242.218 177.976C241.827 178.25 222.984 208.197 222.984 208.197Z" fill="#EFBDA8"/>
<path d="M284.083 162.589C284.001 162.748 283.905 162.898 283.796 163.039C283.6 163.333 283.307 163.763 282.922 164.304C282.153 165.393 281.005 166.945 279.552 168.835C278.098 170.726 276.331 172.95 274.427 175.46C273.475 176.718 272.471 178.068 271.493 179.437C271.247 179.804 270.975 180.153 270.678 180.48C270.354 180.839 269.912 181.071 269.432 181.132C268.95 181.136 268.477 181 268.07 180.741C267.666 180.506 267.3 180.258 266.916 180.011L262.443 177.142C261.719 176.679 261.015 176.21 260.318 175.786C259.686 175.329 258.918 175.099 258.14 175.134C257.406 175.269 256.719 175.59 256.145 176.066C255.558 176.509 254.978 176.959 254.371 177.331C253.249 178.02 252.026 178.528 250.746 178.837C248.899 179.3 246.973 179.344 245.106 178.967C244.814 178.914 244.524 178.844 244.239 178.759C243.991 178.687 243.783 178.628 243.587 178.563C243.415 178.512 243.249 178.442 243.092 178.355C243.266 178.391 243.438 178.439 243.607 178.498C243.776 178.55 243.985 178.602 244.259 178.661C244.545 178.734 244.834 178.793 245.126 178.837C246.972 179.162 248.867 179.085 250.681 178.609C251.93 178.287 253.122 177.775 254.215 177.09C254.802 176.725 255.362 176.281 255.962 175.825C256.573 175.309 257.308 174.963 258.094 174.821C258.94 174.767 259.78 174.996 260.481 175.473C261.191 175.91 261.889 176.366 262.619 176.829L267.092 179.691C267.855 180.154 268.591 180.8 269.4 180.76C269.799 180.71 270.165 180.515 270.43 180.213C270.717 179.898 270.981 179.562 271.219 179.209C272.217 177.82 273.214 176.49 274.173 175.238C276.089 172.734 277.882 170.531 279.389 168.659C280.895 166.788 282.036 165.256 282.838 164.193L283.77 162.967C283.867 162.835 283.971 162.709 284.083 162.589V162.589Z" fill="#263238"/>
<path d="M235.235 199.838C235.365 199.514 235.527 199.204 235.718 198.912C236.044 198.332 236.546 197.497 237.178 196.48C238.482 194.446 240.295 191.688 242.505 188.767C244.715 185.846 246.86 183.323 248.477 181.549C249.286 180.663 249.951 179.959 250.433 179.483C250.664 179.222 250.917 178.982 251.19 178.765C250.997 179.052 250.778 179.32 250.538 179.567C250.062 180.122 249.429 180.839 248.673 181.706C247.115 183.518 244.996 186.061 242.805 188.976C240.614 191.89 238.73 194.615 237.413 196.611C236.761 197.576 236.259 198.371 235.861 198.984C235.676 199.285 235.467 199.571 235.235 199.838Z" fill="#263238"/>
<path d="M238.039 202.342H238.163L238.534 202.42L239.975 202.726C241.24 203 243.092 203.378 245.452 203.88C246.632 204.115 247.943 204.369 249.364 204.617C250.081 204.741 250.824 204.845 251.6 204.963C252.376 205.08 253.178 205.276 253.993 205.491C255.623 205.908 257.331 206.456 259.111 207.075C260.005 207.388 260.911 207.727 261.837 208.086C262.3 208.268 262.762 208.451 263.232 208.653L263.93 208.959L264.282 209.129L264.464 209.227L264.555 209.285L264.601 209.325C264.645 209.364 264.674 209.417 264.686 209.475V209.514L257.879 231.251C257.504 231.952 257.068 232.617 256.575 233.24C256.083 233.9 255.504 234.489 254.854 234.994C254.612 235.178 254.344 235.323 254.058 235.424L253.25 235.698L251.646 236.239L248.503 237.328L242.387 239.382L242.296 239.414L242.224 239.349L235.828 233.423L234.316 232.014C233.803 231.563 233.316 231.084 232.855 230.58C232.402 230.059 232.104 229.422 231.995 228.741C231.909 228.091 231.922 227.431 232.034 226.785C232.907 221.791 233.892 217.416 234.785 213.784C235.678 210.153 236.5 207.264 237.08 205.308L237.771 203.059L237.96 202.485C237.979 202.417 238.005 202.352 238.039 202.29C238.039 202.29 238.039 202.361 237.993 202.492C237.947 202.622 237.895 202.831 237.83 203.078L237.178 205.334C236.63 207.29 235.841 210.179 234.974 213.81C234.107 217.442 233.149 221.823 232.308 226.798C232.2 227.416 232.187 228.047 232.268 228.669C232.37 229.298 232.651 229.884 233.077 230.358C233.527 230.851 234.003 231.319 234.505 231.76L236.024 233.22L242.427 239.134H242.264L248.373 237.067L251.542 235.998L253.145 235.457L253.954 235.183C254.205 235.091 254.44 234.961 254.652 234.798C255.275 234.31 255.832 233.743 256.308 233.11C256.778 232.495 257.195 231.84 257.553 231.154V231.154L264.406 209.429L264.529 209.475C261.086 207.993 257.549 206.739 253.941 205.719C253.132 205.504 252.337 205.321 251.574 205.184C250.811 205.047 250.048 204.95 249.331 204.819C247.903 204.565 246.593 204.298 245.419 204.05C243.059 203.548 241.214 203.118 239.956 202.818L238.521 202.466L238.156 202.368C238.078 202.361 238.032 202.348 238.039 202.342Z" fill="#263238"/>
<g opacity="0.3">
<path opacity="0.3" d="M238.749 277.641C231.199 276.5 220.708 273.351 212.102 271.551C209.031 270.899 206.371 270.169 203.3 269.53L202.772 271.232C211.492 273.114 219.931 276.123 227.874 280.184C232.647 282.629 237.38 285.485 242.687 286.261C248.627 287.134 254.593 285.309 260.291 283.503C263.551 282.479 266.909 281.364 269.211 278.886C270.834 277.133 271.76 274.864 272.614 272.634C274.861 266.735 276.828 260.737 278.515 254.639C268.265 266.153 253.987 279.949 238.749 277.641Z" fill="black"/>
</g>
<path d="M274.349 203.333L252.65 243.235C252.65 243.235 247.617 244.246 247.617 249.573C247.617 249.573 245.863 248.171 243.313 249.69C241.677 250.661 237.067 251.959 234.518 253.322C233.908 253.645 233.427 254.168 233.154 254.802C232.882 255.436 232.834 256.144 233.018 256.81L239.753 281.279C239.753 281.279 247.936 281.279 248.66 279.252L259.881 275.737C259.881 275.737 267.124 273.84 269.928 269.002C272.732 264.164 289.436 239.284 289.436 239.284" fill="#F7DF1E"/>
<path d="M289.436 239.284C289.436 239.284 289.39 239.375 289.286 239.538C289.182 239.701 289.019 239.943 288.823 240.256L286.997 243.027L280.164 253.354C278.71 255.571 277.107 258.009 275.379 260.657C273.651 263.304 271.793 266.146 269.928 269.23C268.909 270.816 267.548 272.152 265.944 273.142C264.29 274.206 262.506 275.054 260.637 275.666L248.712 279.408L248.816 279.304C248.639 279.683 248.337 279.991 247.962 280.177C247.613 280.363 247.246 280.512 246.867 280.621C246.112 280.847 245.34 281.011 244.559 281.11C242.966 281.326 241.361 281.439 239.753 281.449H239.623V281.325L235.822 267.516C235.135 265.034 234.459 262.576 233.794 260.141C233.468 258.916 233.142 257.742 232.816 256.503C232.715 255.856 232.813 255.193 233.099 254.604C233.384 254.014 233.843 253.526 234.414 253.204C236.597 252.184 238.835 251.283 241.116 250.505C241.664 250.29 242.205 250.075 242.727 249.853C243.237 249.564 243.766 249.309 244.311 249.09C244.874 248.881 245.478 248.807 246.075 248.874C246.671 248.941 247.244 249.147 247.747 249.475L247.486 249.599C247.458 248.06 247.976 246.561 248.947 245.367C249.916 244.244 251.214 243.455 252.657 243.111L252.552 243.19C259.033 231.323 264.477 221.361 268.298 214.352L272.764 206.228C273.286 205.295 273.684 204.585 273.957 204.083L274.27 203.541C274.302 203.478 274.339 203.417 274.381 203.359C274.381 203.359 274.381 203.424 274.29 203.548L273.996 204.109C273.736 204.611 273.344 205.334 272.849 206.273C271.825 208.171 270.339 210.935 268.461 214.436L252.813 243.333V243.392H252.741C251.367 243.726 250.132 244.48 249.207 245.55C248.285 246.687 247.797 248.115 247.832 249.579V249.886L247.577 249.703C247.117 249.409 246.594 249.227 246.051 249.17C245.508 249.114 244.959 249.184 244.448 249.377C243.917 249.592 243.4 249.843 242.903 250.127C242.368 250.381 241.82 250.603 241.266 250.818C239 251.591 236.778 252.488 234.609 253.504C234.099 253.793 233.689 254.23 233.434 254.758C233.179 255.286 233.091 255.879 233.181 256.458C233.462 257.625 233.833 258.851 234.153 260.057C234.818 262.487 235.494 264.947 236.18 267.437C237.484 272.164 238.756 276.8 239.975 281.24L239.819 281.116C241.411 281.111 243 281.002 244.578 280.79C245.344 280.69 246.1 280.531 246.841 280.314C247.196 280.212 247.539 280.072 247.864 279.897C248.172 279.75 248.422 279.504 248.575 279.199L248.608 279.128H248.679L260.604 275.411C262.441 274.807 264.194 273.973 265.82 272.927C267.39 271.963 268.726 270.662 269.732 269.12C271.61 266.036 273.481 263.199 275.209 260.552L280.034 253.269L286.88 242.935L288.745 240.19L289.234 239.486C289.371 239.33 289.436 239.284 289.436 239.284Z" fill="#263238"/>
<path d="M277.693 255.93C277.633 255.808 277.592 255.679 277.569 255.545C277.491 255.258 277.4 254.893 277.282 254.437C277.028 253.419 276.689 252.031 276.265 250.322C275.411 246.86 274.205 242.075 272.784 236.813C271.362 231.551 269.993 226.811 268.983 223.382L267.789 219.32L267.47 218.218C267.426 218.089 267.398 217.956 267.385 217.82C267.45 217.94 267.5 218.067 267.535 218.198L267.913 219.281C268.233 220.233 268.676 221.608 269.217 223.31C270.287 226.72 271.688 231.46 273.129 236.722C274.57 241.983 275.737 246.789 276.52 250.27C276.917 252.011 277.23 253.426 277.432 254.404L277.654 255.532C277.676 255.663 277.689 255.796 277.693 255.93Z" fill="white"/>
<path d="M269.778 268.402C269.687 268.402 267.874 258.968 265.736 247.297C263.597 235.626 261.928 226.14 262.019 226.12C262.111 226.101 263.923 235.555 266.068 247.232C268.213 258.909 269.869 268.389 269.778 268.402Z" fill="white"/>
<path d="M234.068 213.021C234.12 213.1 230.938 215.356 226.968 218.061C222.997 220.767 219.724 222.893 219.672 222.814C219.62 222.736 222.801 220.48 226.772 217.781C230.743 215.082 234.016 212.943 234.068 213.021Z" fill="white"/>
<path d="M231.956 221.537C231.82 221.72 231.662 221.887 231.486 222.032C231.167 222.339 230.704 222.762 230.117 223.277C228.943 224.314 227.3 225.709 225.429 227.189C223.558 228.669 221.83 229.967 220.559 230.873C219.907 231.33 219.405 231.688 219.039 231.929C218.856 232.064 218.659 232.179 218.453 232.275C218.602 232.101 218.773 231.948 218.961 231.819L220.415 230.678C221.654 229.726 223.356 228.409 225.22 226.922C227.085 225.436 228.754 224.079 229.96 223.088L231.401 221.928C231.568 221.774 231.755 221.642 231.956 221.537V221.537Z" fill="white"/>
<path d="M217.768 222.462C217.69 222.521 215.421 219.541 212.702 215.819C209.983 212.096 207.832 209.025 207.91 208.966C207.988 208.907 210.25 211.887 212.976 215.616C215.701 219.346 217.853 222.41 217.768 222.462Z" fill="white"/>
<path d="M216.64 233.892C216.216 233.605 215.829 233.268 215.486 232.888C214.834 232.236 213.908 231.284 212.976 230.182C212.043 229.08 211.261 228.037 210.726 227.255C210.41 226.854 210.145 226.416 209.938 225.951C210.306 226.301 210.636 226.69 210.922 227.111C211.502 227.854 212.311 228.865 213.237 229.96C214.162 231.056 215.03 232.027 215.656 232.725C216.021 233.08 216.351 233.471 216.64 233.892Z" fill="white"/>
<path d="M275.939 172.689C275.379 172.368 274.843 172.006 274.336 171.606L270.58 168.868C269.113 167.792 267.803 166.801 266.87 166.058C266.344 165.682 265.855 165.256 265.41 164.786C265.973 165.1 266.509 165.46 267.014 165.862L270.782 168.594C272.249 169.67 273.566 170.661 274.499 171.404C275.021 171.783 275.504 172.213 275.939 172.689V172.689Z" fill="white"/>
<path d="M278.913 168.568C277.275 167.43 275.703 166.201 274.205 164.884C272.634 163.651 271.132 162.332 269.706 160.933C271.348 162.071 272.922 163.303 274.42 164.623C275.991 165.852 277.491 167.169 278.913 168.568V168.568Z" fill="white"/>
<path d="M247.584 209.944C247.675 209.944 246.515 216.464 244.976 224.412C243.437 232.36 242.133 238.828 242.042 238.815C241.951 238.802 243.118 232.295 244.65 224.347C246.182 216.399 247.493 209.892 247.584 209.944Z" fill="white"/>
<path d="M264.093 258.466C263.895 258.4 263.707 258.311 263.532 258.199C263.173 258.009 262.678 257.71 262.071 257.318C260.511 256.279 259.057 255.088 257.729 253.765C256.402 252.44 255.212 250.985 254.176 249.423C253.784 248.823 253.484 248.327 253.295 247.969C253.181 247.794 253.093 247.602 253.035 247.401C253.08 247.401 253.543 248.132 254.378 249.286C255.46 250.794 256.662 252.213 257.97 253.53C259.288 254.835 260.705 256.036 262.208 257.123C263.369 257.951 264.125 258.414 264.093 258.466Z" fill="#263238"/>
<path d="M264.81 245.947C264.209 246.134 263.587 246.246 262.958 246.28C259.927 246.592 256.865 246.268 253.967 245.328C253.359 245.164 252.774 244.923 252.226 244.611C252.226 244.565 252.924 244.8 254.039 245.1C255.483 245.496 256.957 245.775 258.446 245.934C259.938 246.089 261.441 246.126 262.939 246.045C263.56 245.976 264.185 245.943 264.81 245.947V245.947Z" fill="#263238"/>
<path d="M218.185 183.962C218.177 184.016 218.162 184.069 218.14 184.118L217.964 184.562C217.82 184.953 217.572 185.52 217.24 186.237C216.588 187.678 215.46 189.686 214.012 192.105C212.248 194.905 210.746 197.863 209.527 200.94L209.292 201.592L209.096 202.244C208.973 202.7 208.842 203.17 208.718 203.639C208.579 204.111 208.477 204.593 208.412 205.08C208.334 205.569 208.249 206.065 208.164 206.567C208.047 207.571 207.981 208.601 207.923 209.644C207.923 210.166 207.923 210.694 207.923 211.228C207.923 211.763 207.923 212.291 207.968 212.826C208.285 216.894 208.847 220.939 209.651 224.94C210.289 228.202 210.737 231.498 210.994 234.811C211.124 236.22 211.059 237.511 211.078 238.639C210.987 239.76 210.935 240.731 210.837 241.52C210.739 242.309 210.596 242.883 210.518 243.32L210.426 243.783C210.418 243.837 210.403 243.889 210.381 243.939C210.374 243.885 210.374 243.83 210.381 243.776C210.381 243.655 210.4 243.498 210.44 243.307C210.498 242.87 210.583 242.264 210.694 241.507C210.805 240.751 210.805 239.753 210.876 238.632C210.837 237.511 210.876 236.233 210.739 234.824C210.447 231.526 209.977 228.246 209.331 224.999C208.512 221.011 207.942 216.976 207.623 212.917C207.577 212.376 207.571 211.841 207.577 211.3C207.584 210.759 207.577 210.237 207.577 209.703C207.642 208.653 207.708 207.61 207.825 206.593C207.916 206.091 208.001 205.589 208.086 205.093C208.151 204.599 208.253 204.111 208.392 203.633C208.529 203.157 208.66 202.687 208.79 202.224L208.986 201.533C209.064 201.305 209.149 201.083 209.227 200.881C210.462 197.793 211.99 194.83 213.791 192.034C215.258 189.615 216.399 187.633 217.103 186.211C217.449 185.501 217.716 184.953 217.885 184.568C217.964 184.392 218.029 184.255 218.087 184.138C218.109 184.074 218.142 184.014 218.185 183.962V183.962Z" fill="#263238"/>
<path d="M240.327 157.23L240.242 157.367L239.982 157.745C239.753 158.084 239.382 158.56 238.893 159.16C237.908 160.366 236.415 162.048 234.531 164.115C233.599 165.158 232.575 166.293 231.466 167.518C230.358 168.744 229.211 170.087 228.109 171.587C225.856 174.976 224.412 178.837 223.89 182.873L223.571 182.782C224.096 181.784 224.709 180.835 225.403 179.945C225.755 179.47 226.107 178.994 226.433 178.511C226.596 178.27 226.759 178.029 226.902 177.781L227.118 177.409L227.222 177.22L227.268 177.122V177.077L227.307 177.018C227.328 176.993 227.355 176.973 227.386 176.962C227.417 176.951 227.45 176.947 227.483 176.953C227.513 176.958 227.542 176.97 227.567 176.988C227.591 177.006 227.612 177.03 227.626 177.057V177.096V177.148L227.665 177.253L227.744 177.461C227.802 177.596 227.848 177.736 227.88 177.879C227.966 178.16 228.029 178.448 228.07 178.739C228.162 179.308 228.199 179.885 228.18 180.461C228.027 182.622 227.669 184.763 227.111 186.857C226.348 190.925 224.953 194.407 224.125 197.4C223.397 199.746 222.992 202.181 222.919 204.637C222.91 205.303 222.94 205.969 223.01 206.632C223.01 206.84 223.056 207.017 223.069 207.147C223.079 207.207 223.079 207.269 223.069 207.329C222.87 206.446 222.771 205.542 222.775 204.637C222.799 202.162 223.174 199.703 223.89 197.334C224.692 194.316 226.055 190.814 226.798 186.791C227.342 184.716 227.692 182.594 227.841 180.454C227.857 179.898 227.82 179.341 227.731 178.791C227.692 178.513 227.63 178.238 227.548 177.97C227.52 177.834 227.478 177.7 227.424 177.572L227.346 177.377L227.313 177.279V177.227C227.365 177.227 227.183 177.272 227.437 177.161C227.326 177.103 227.594 177.233 227.561 177.227V177.272L227.548 177.344L227.444 177.546L227.222 177.931C227.065 178.185 226.909 178.433 226.739 178.674C226.407 179.163 226.055 179.639 225.703 180.122C225.023 180.991 224.421 181.918 223.903 182.893L223.421 183.91L223.584 182.801C224.113 178.712 225.589 174.803 227.894 171.385C229.008 169.872 230.189 168.549 231.29 167.316C232.392 166.084 233.442 164.963 234.394 163.932C236.298 161.885 237.817 160.229 238.821 159.055C239.323 158.462 239.708 158.006 239.956 157.68L240.242 157.321C240.282 157.262 240.321 157.223 240.327 157.23Z" fill="#263238"/>
<path d="M241.677 250.283C241.763 250.347 241.839 250.421 241.905 250.505L242.511 251.19C242.836 251.545 243.138 251.92 243.418 252.311C243.75 252.767 244.161 253.269 244.533 253.869C244.904 254.469 245.348 255.121 245.739 255.858C246.13 256.595 246.541 257.384 246.952 258.231C247.785 260.093 248.457 262.024 248.96 264.001C249.428 265.987 249.727 268.009 249.853 270.045C249.853 270.984 249.925 271.877 249.853 272.712C249.841 273.488 249.789 274.263 249.696 275.033C249.651 275.744 249.52 276.376 249.436 276.93C249.367 277.407 249.271 277.88 249.149 278.345L248.927 279.232C248.91 279.338 248.877 279.442 248.829 279.538C248.824 279.431 248.835 279.323 248.862 279.219C248.908 278.971 248.96 278.678 249.018 278.319C249.077 277.961 249.188 277.459 249.247 276.898C249.305 276.337 249.429 275.718 249.462 275.007C249.494 274.296 249.579 273.54 249.573 272.706C249.566 271.871 249.573 270.997 249.52 270.065C249.378 268.051 249.073 266.051 248.608 264.086C248.114 262.127 247.46 260.213 246.652 258.362C246.254 257.52 245.895 256.712 245.478 255.995C245.061 255.278 244.696 254.599 244.317 254.006C243.939 253.413 243.568 252.885 243.255 252.428C242.942 251.972 242.642 251.581 242.394 251.274L241.84 250.551C241.775 250.468 241.721 250.378 241.677 250.283V250.283Z" fill="#263238"/>
<path d="M262.378 214.769C262.04 214.688 261.711 214.577 261.393 214.436L258.74 213.465C256.49 212.65 253.361 211.613 249.84 210.681C246.319 209.748 243.079 209.09 240.712 208.679L237.921 208.21C237.576 208.17 237.234 208.105 236.898 208.014C237.247 208.004 237.596 208.025 237.941 208.079C238.593 208.144 239.564 208.268 240.751 208.444C243.825 208.916 246.872 209.552 249.879 210.348C252.916 211.152 255.909 212.116 258.844 213.237C259.959 213.673 260.852 214.039 261.452 214.319C261.773 214.442 262.083 214.592 262.378 214.769V214.769Z" fill="#263238"/>
<g opacity="0.3">
<path opacity="0.3" d="M258.844 260.754C258.366 259.873 257.745 259.077 257.005 258.401L247.643 248.868V249.573C249.723 250.987 250.166 253.856 250.766 256.301C251.366 258.746 251.887 261.361 253.589 263.219C254.261 264.001 255.182 264.528 256.197 264.712C256.7 264.798 257.217 264.742 257.689 264.549C258.161 264.357 258.571 264.036 258.87 263.623C259.103 263.18 259.223 262.686 259.219 262.185C259.214 261.685 259.085 261.193 258.844 260.754V260.754Z" fill="black"/>
</g>
<g opacity="0.3">
<path opacity="0.3" d="M245.98 238.143C244.983 238.612 243.872 238.787 242.779 238.645C241.853 238.343 241.02 237.809 240.36 237.093L232.568 229.993C234.798 233.253 236.585 236.591 238.815 239.871C239.414 240.757 240.079 241.69 241.084 242.055C242.088 242.42 243.3 242.101 244.344 241.703C248.091 240.261 251.482 238.023 254.28 235.144L245.98 238.143Z" fill="black"/>
</g>
<g opacity="0.3">
<path opacity="0.3" d="M236.193 197.875C243.476 194.387 246.097 184.699 253.328 181.093C255.412 180.085 257.727 179.651 260.034 179.837C262.341 180.022 264.557 180.821 266.453 182.149C267.705 183.049 269.093 184.249 270.58 183.825C271.701 183.505 272.347 182.364 272.875 181.328C274.683 177.79 276.491 174.247 278.3 170.7L271.186 179.085C270.732 179.74 270.088 180.24 269.341 180.519C267.907 180.891 266.87 179.28 265.547 178.622C261.426 176.568 258.531 173.98 256.236 175.714C256.236 175.714 252.226 178.472 250.622 178.765L236.193 197.602" fill="black"/>
</g>
<g opacity="0.3">
<path opacity="0.3" d="M223.792 204.969C223.193 201.761 223.91 198.215 225.233 195.235C226.557 192.255 228.22 189.367 229.035 186.224C229.687 183.695 229.778 181.053 229.302 178.485C229.074 177.285 228.728 176.066 228.989 174.873C229.191 174.118 229.521 173.403 229.967 172.76C231.614 170.123 233.519 167.655 235.652 165.393L240.216 158.547C240.216 158.547 240.412 166.501 240.262 167.251C239.776 169.607 239.123 171.926 238.306 174.188C236.964 177.882 235.233 181.423 233.142 184.751C230.681 188.581 228.538 192.607 226.733 196.787L223.792 204.969Z" fill="black"/>
</g>
<path d="M252.65 175.747C243.411 173.569 240.575 168.972 240.464 160.848L240.327 150.508C240.327 150.508 230.097 149.98 227.711 134.742C226.524 127.166 225.494 114.922 226.159 104.75C226.753 95.6223 236.246 79.5049 245.341 80.4894L270.339 92.6492C271.672 92.7941 272.903 93.4337 273.787 94.4416C274.672 95.4495 275.147 96.7525 275.118 98.0934L273.162 157.145" fill="#EFBDA8"/>
<path d="M230.065 115.971C230.064 116.477 230.26 116.963 230.61 117.327C230.96 117.692 231.437 117.907 231.942 117.927C232.191 117.948 232.441 117.918 232.678 117.84C232.915 117.762 233.134 117.637 233.322 117.473C233.51 117.309 233.663 117.109 233.772 116.884C233.881 116.66 233.944 116.416 233.957 116.167C233.958 115.662 233.763 115.177 233.415 114.813C233.066 114.448 232.59 114.233 232.086 114.211C231.837 114.191 231.587 114.222 231.35 114.3C231.113 114.378 230.894 114.503 230.706 114.667C230.518 114.831 230.364 115.031 230.254 115.255C230.144 115.478 230.08 115.722 230.065 115.971V115.971Z" fill="#263238"/>
<path d="M228.852 111.766C229.061 111.948 230.599 111.766 232.64 112.242C234.681 112.718 236.076 113.65 236.317 113.546C236.441 113.546 236.239 113.22 235.633 112.809C234.737 112.24 233.752 111.826 232.718 111.583C231.725 111.325 230.693 111.252 229.674 111.368C229.002 111.492 228.748 111.675 228.852 111.766Z" fill="#263238"/>
<path d="M249.625 116.558C249.624 117.065 249.821 117.552 250.172 117.916C250.523 118.281 251.003 118.495 251.509 118.514C251.757 118.534 252.007 118.503 252.244 118.425C252.48 118.346 252.699 118.222 252.887 118.058C253.074 117.894 253.227 117.694 253.337 117.47C253.446 117.246 253.51 117.002 253.524 116.754C253.524 116.248 253.329 115.762 252.979 115.397C252.629 115.033 252.151 114.818 251.646 114.798C251.397 114.778 251.147 114.808 250.91 114.887C250.673 114.965 250.454 115.09 250.266 115.254C250.078 115.418 249.924 115.617 249.814 115.841C249.704 116.065 249.64 116.309 249.625 116.558V116.558Z" fill="#263238"/>
<path d="M249.546 113.402C249.853 113.474 251.203 112.444 253.406 111.857C255.61 111.27 257.429 111.433 257.618 111.205C257.716 111.107 257.37 110.918 256.575 110.827C255.421 110.732 254.26 110.845 253.145 111.159C252.059 111.429 251.036 111.907 250.133 112.568C249.546 113.044 249.403 113.37 249.546 113.402Z" fill="#263238"/>
<path d="M241.833 127.244C241.833 127.127 240.529 126.899 238.417 126.625C237.882 126.566 237.374 126.462 237.282 126.09C237.241 125.537 237.368 124.985 237.647 124.506C238.156 123.202 238.684 121.846 239.245 120.418C241.462 114.609 243.066 109.829 242.831 109.738C242.596 109.647 240.608 114.302 238.391 120.105L236.865 124.213C236.522 124.858 236.421 125.605 236.578 126.319C236.652 126.514 236.77 126.689 236.923 126.832C237.075 126.974 237.259 127.08 237.458 127.14C237.756 127.221 238.063 127.263 238.371 127.264C240.503 127.355 241.82 127.368 241.833 127.244Z" fill="#263238"/>
<path d="M240.327 150.658C247.496 150.784 254.558 148.917 260.728 145.266C260.728 145.266 255.584 155.998 240.327 154.524V150.658Z" fill="#D1967C"/>
<path d="M242.166 132.356C243.209 130.798 244.774 129.748 246.208 129.689C246.688 129.644 247.171 129.744 247.593 129.976C248.015 130.209 248.357 130.563 248.575 130.993C248.803 131.56 248.891 132.174 248.832 132.782C248.773 133.39 248.569 133.975 248.236 134.488C247.914 135.027 247.441 135.46 246.876 135.734C246.31 136.007 245.677 136.109 245.054 136.027C244.034 135.727 243.126 135.13 242.446 134.312C242.212 134.107 242.029 133.851 241.912 133.562C241.857 133.377 241.843 133.183 241.873 132.992C241.902 132.802 241.973 132.62 242.081 132.46" fill="#D1967C"/>
<path d="M248.014 128.711C247.669 128.711 247.662 130.974 245.706 132.623C243.75 134.273 241.325 133.979 241.305 134.299C241.273 134.442 241.846 134.742 242.87 134.775C244.206 134.792 245.507 134.343 246.547 133.504C247.544 132.691 248.185 131.521 248.334 130.244C248.412 129.266 248.171 128.698 248.014 128.711Z" fill="#263238"/>
<path d="M247.838 104.216C248.099 104.763 250.159 104.287 252.644 104.34C255.128 104.392 257.175 104.868 257.455 104.34C257.573 104.079 257.175 103.577 256.321 103.107C255.187 102.537 253.939 102.233 252.67 102.217C251.402 102.201 250.146 102.475 248.999 103.016C248.132 103.459 247.721 103.948 247.838 104.216Z" fill="#263238"/>
<path d="M228.2 107.137C228.663 107.613 230.462 107.137 232.621 107.084C234.779 107.032 236.617 107.397 237.041 106.902C237.224 106.654 236.93 106.178 236.135 105.728C235.022 105.165 233.782 104.898 232.536 104.952C231.298 104.961 230.084 105.294 229.015 105.917C228.259 106.413 228.004 106.928 228.2 107.137Z" fill="#263238"/>
<path d="M296.993 161.598C293.674 156.232 290.962 142.86 289.821 136.085C288.68 129.311 285.074 107.573 279.297 96.1504C273.521 84.7274 266.72 80.1112 260.05 78.3117C257.52 77.5592 254.839 77.471 252.265 78.0557C249.691 78.6404 247.311 79.8783 245.354 81.65C242.342 84.3427 241.312 92.1928 241.312 92.1928C241.312 92.1928 257.41 95.7723 262.828 104.952C269.054 115.495 270.567 120.796 270.567 120.796L272.582 126.566C272.582 126.566 270.691 137.728 269.974 143.251C269.256 148.773 270.384 153.892 274.929 156.128L284.057 162.589C284.057 162.589 296.001 170.707 296.549 171.124C299.098 173.08 304.099 180.493 304.099 180.493C304.099 180.493 303.78 172.571 296.993 161.598Z" fill="#263238"/>
<path d="M240.849 92.2906C240.849 92.2906 231.643 91.28 228.239 101.712C226.707 106.413 225.527 119.968 225.527 119.968C225.527 119.968 224.184 109.184 224.679 103.016C225.175 96.8481 228.246 89.0763 232.966 84.76C237.53 80.5677 241.442 78.5986 249.625 79.1007C249.625 79.1007 245.804 80.4047 243.705 83.5277C242.655 85.1121 242.198 86.4357 240.849 92.2906Z" fill="#263238"/>
<path d="M270.45 121.598C270.613 118.227 274.283 115.984 277.204 117.686C278.808 118.618 280.04 120.483 279.891 124.056C279.499 133.601 270 131.228 269.993 130.961C269.993 130.772 270.247 125.549 270.45 121.598Z" fill="#EFBDA8"/>
<path d="M273.058 127.446C273.103 127.446 273.221 127.57 273.494 127.714C273.882 127.899 274.327 127.924 274.733 127.785C275.757 127.459 276.689 125.895 276.794 124.18C276.85 123.362 276.723 122.543 276.422 121.781C276.342 121.483 276.192 121.21 275.985 120.983C275.777 120.756 275.518 120.582 275.229 120.477C275.039 120.417 274.835 120.427 274.651 120.503C274.467 120.579 274.317 120.718 274.225 120.894C274.088 121.155 274.14 121.344 274.088 121.363C274.036 121.383 273.892 121.194 273.983 120.803C274.046 120.568 274.186 120.361 274.381 120.216C274.655 120.033 274.988 119.961 275.314 120.014C275.702 120.109 276.059 120.301 276.352 120.573C276.645 120.844 276.865 121.186 276.989 121.565C277.361 122.407 277.52 123.327 277.452 124.245C277.315 126.169 276.259 127.929 274.844 128.268C274.586 128.332 274.316 128.337 274.055 128.283C273.795 128.229 273.549 128.117 273.338 127.955C273.064 127.681 273.025 127.466 273.058 127.446Z" fill="#D1967C"/>
<path d="M256.236 77.7119C256.236 77.7836 254.932 77.7119 252.852 78.0183C251.644 78.1824 250.47 78.5344 249.37 79.0615C248.041 79.7336 246.854 80.6569 245.876 81.7804C244.059 83.8137 242.735 86.2391 242.009 88.8676C241.455 90.8888 241.39 92.1993 241.318 92.1928C241.3 91.886 241.311 91.5782 241.351 91.2735C241.433 90.4429 241.574 89.6192 241.775 88.8089C242.449 86.1155 243.769 83.6269 245.621 81.5587C247.434 79.4205 250.005 78.0676 252.793 77.7836C253.625 77.691 254.461 77.6496 255.297 77.6597C255.611 77.6452 255.926 77.6627 256.236 77.7119V77.7119Z" fill="#455A64"/>
<path d="M279.278 128.496C279.269 128.444 279.269 128.391 279.278 128.34L279.356 127.896C279.395 127.694 279.447 127.453 279.499 127.173C279.552 126.892 279.591 126.521 279.643 126.182C279.916 124.063 279.887 121.916 279.558 119.805C279.079 116.676 277.956 113.681 276.259 111.01C274.095 107.79 271.23 105.102 267.881 103.146C266.166 102.104 264.387 101.172 262.554 100.356C260.787 99.5408 259.014 98.9084 257.338 98.1651C254.465 96.8204 251.699 95.2575 249.064 93.4903C246.802 91.9907 245.041 90.6736 243.848 89.7413C243.255 89.2718 242.792 88.9067 242.492 88.6459L242.146 88.3525C242.068 88.2808 242.029 88.2482 242.035 88.2417L242.166 88.3264L242.531 88.5938L243.933 89.637C245.152 90.5367 246.932 91.8212 249.201 93.2882C251.854 95.015 254.633 96.5406 257.514 97.8522C259.137 98.5824 260.924 99.2148 262.73 100.023C264.576 100.844 266.368 101.781 268.096 102.827C271.493 104.809 274.392 107.541 276.572 110.814C278.279 113.527 279.39 116.572 279.832 119.746C280.15 121.875 280.15 124.04 279.832 126.169L279.656 127.166C279.591 127.44 279.532 127.681 279.486 127.883L279.369 128.327C279.304 128.444 279.284 128.503 279.278 128.496Z" fill="#455A64"/>
<path d="M281.488 124.897C281.483 124.845 281.483 124.793 281.488 124.741C281.488 124.617 281.488 124.467 281.488 124.284C281.488 123.88 281.534 123.293 281.488 122.53C281.437 117.191 280.215 111.927 277.908 107.111C276.221 103.601 273.97 100.392 271.245 97.6109C268.468 94.879 265.326 92.5444 261.908 90.6737C258.792 88.8872 255.851 87.5115 253.432 86.3183C251.014 85.1251 249.005 84.1602 247.656 83.443C247.004 83.0974 246.469 82.791 246.117 82.6084L245.719 82.3802C245.672 82.3557 245.628 82.325 245.589 82.2889C245.589 82.2889 245.641 82.2889 245.739 82.3476L246.15 82.5432L247.714 83.3256C249.077 83.9776 251.072 84.9491 253.537 86.0966C256.001 87.2441 258.948 88.6264 262.091 90.3998C265.542 92.2709 268.713 94.6171 271.512 97.3697C274.26 100.182 276.527 103.426 278.221 106.974C279.583 109.877 280.56 112.946 281.129 116.102C281.504 118.226 281.677 120.38 281.644 122.537C281.644 123.3 281.573 123.893 281.553 124.291C281.553 124.473 281.521 124.623 281.514 124.747C281.512 124.798 281.503 124.848 281.488 124.897V124.897Z" fill="#455A64"/>
<path d="M281.208 160.555C281.148 160.466 281.1 160.369 281.064 160.268L280.706 159.421C280.549 159.049 280.367 158.592 280.197 158.051C280.027 157.51 279.799 156.897 279.63 156.2C279.538 155.848 279.441 155.489 279.343 155.111C279.245 154.733 279.173 154.328 279.082 153.918C278.886 153.09 278.769 152.196 278.613 151.264C278.346 149.222 278.192 147.168 278.15 145.109C278.119 141.374 278.304 137.641 278.704 133.927C278.854 132.506 278.984 131.358 279.089 130.563C279.141 130.198 279.18 129.911 279.212 129.65C279.224 129.542 279.246 129.435 279.278 129.331C279.293 129.439 279.293 129.549 279.278 129.657L279.212 130.576C279.141 131.424 279.049 132.532 278.939 133.953C278.717 136.803 278.411 140.747 278.482 145.103C278.523 147.147 278.669 149.189 278.919 151.218C279.063 152.151 279.173 153.044 279.349 153.826C279.434 154.237 279.499 154.635 279.591 155.02L279.858 156.102C280.008 156.799 280.217 157.406 280.373 157.96C280.53 158.514 280.686 158.964 280.823 159.342C280.96 159.72 281.038 159.994 281.123 160.209C281.172 160.318 281.201 160.436 281.208 160.555V160.555Z" fill="#455A64"/>
<path d="M160.509 248.138C160.509 248.138 170.876 261.439 174.593 262.482C178.309 263.525 192.386 267.014 192.386 267.014L238.58 277.687L233.142 257.886L189.393 257.292L160.509 248.138Z" fill="#EFBDA8"/>
<path d="M101.112 180.408C104.574 188.995 122.022 228.278 126.064 237.374C126.327 237.966 126.713 238.496 127.196 238.928C127.68 239.359 128.25 239.683 128.868 239.877L183.779 257.312L238.26 261.38V259.587L194.218 246.241L180.304 244.611L159.531 193.103C159.063 191.942 158.309 190.918 157.339 190.127C156.369 189.336 155.214 188.803 153.983 188.578L102.201 179.085C102.029 179.055 101.853 179.071 101.689 179.131C101.526 179.192 101.381 179.294 101.271 179.429C101.16 179.564 101.087 179.725 101.059 179.897C101.031 180.069 101.05 180.246 101.112 180.408Z" fill="#455A64"/>
<path d="M238.26 259.587H238.084L237.582 259.548L235.626 259.372L228.487 258.655L217.905 257.54L204.937 256.236C200.334 255.78 195.946 255.434 191.949 255.206L186.27 254.854C185.832 254.827 185.396 254.77 184.966 254.684C184.74 254.644 184.521 254.573 184.314 254.476C184.103 254.372 183.93 254.206 183.818 254C183.477 253.274 183.176 252.529 182.919 251.77C181.856 248.96 180.963 246.671 180.382 245.061C180.095 244.285 179.874 243.672 179.73 243.229L179.561 242.746C179.54 242.694 179.524 242.639 179.515 242.583C179.515 242.583 179.515 242.629 179.593 242.74L179.789 243.203C179.972 243.639 180.213 244.246 180.526 245.015L183.166 251.692C183.424 252.431 183.722 253.156 184.06 253.863C184.149 254.026 184.285 254.158 184.451 254.241C184.635 254.321 184.827 254.38 185.025 254.417C185.455 254.498 185.891 254.548 186.329 254.567C188.102 254.652 190.012 254.782 192.007 254.899C196.011 255.108 200.412 255.441 205.015 255.897L217.983 257.201L228.565 258.381L235.698 259.203L237.654 259.444L238.156 259.509L238.26 259.587Z" fill="#263238"/>
<path d="M210.107 249.064C210.107 249.064 210.896 243.887 210.107 242.863C209.318 241.84 203.77 236.852 203.77 236.852L200.62 233.892L193.677 232.829C193.266 232.766 192.847 232.825 192.47 232.999C192.093 233.173 191.776 233.454 191.558 233.807L190.847 234.948L188.963 234.635L187.3 232.229H182.671L179.248 235.926V240.921C179.248 240.921 179.711 242.309 180.917 241.292C182.123 240.275 182.221 237.458 182.221 237.458L184.275 239.349L182.091 246.013C182.091 246.013 183.623 247.408 184.738 246.013C185.853 244.617 187.417 242.59 187.417 242.59C187.417 242.59 189.269 247.584 192.412 249.064C195.554 250.544 203.144 251.894 204.721 251.542C206.299 251.19 209.807 251.835 210.107 249.064Z" fill="#EFBDA8"/>
<path d="M199.121 237.706C199.121 237.706 199.121 237.784 198.997 237.895C198.845 238.053 198.657 238.171 198.449 238.241C198.125 238.352 197.782 238.401 197.439 238.384C197.041 238.384 196.604 238.286 196.135 238.241C195.636 238.154 195.123 238.234 194.674 238.469C194.211 238.847 193.801 239.285 193.455 239.773C193 240.337 192.438 240.805 191.801 241.151C191.164 241.496 190.466 241.713 189.745 241.788C189.149 241.832 188.551 241.723 188.009 241.471C187.467 241.218 186.998 240.831 186.648 240.347L186.576 240.242L186.668 240.151C187.885 238.87 189.007 237.501 190.025 236.057C190.775 234.981 191.179 234.322 191.219 234.342C191.162 234.52 191.081 234.689 190.977 234.844C190.808 235.157 190.547 235.613 190.188 236.148C189.229 237.644 188.138 239.051 186.928 240.353V240.151C187.249 240.589 187.676 240.938 188.168 241.167C188.661 241.395 189.204 241.494 189.745 241.455C191.109 241.307 192.361 240.63 193.233 239.571C193.605 239.066 194.043 238.614 194.537 238.228C195.044 237.97 195.622 237.889 196.18 238C196.669 238.065 197.1 238.169 197.484 238.195C197.806 238.223 198.13 238.197 198.443 238.117C198.694 238.028 198.925 237.888 199.121 237.706V237.706Z" fill="#D1967C"/>
<path d="M204.572 248.79C204.532 248.79 204.493 248.497 204.285 248.008C203.981 247.319 203.577 246.68 203.085 246.11C202.485 245.367 201.657 244.559 200.907 243.502C200.507 242.942 200.215 242.312 200.047 241.644C199.872 240.919 199.883 240.161 200.079 239.44C200.273 238.727 200.613 238.061 201.077 237.484C201.297 237.19 201.583 236.951 201.911 236.787C202.082 236.709 202.269 236.672 202.456 236.678C202.644 236.684 202.828 236.732 202.994 236.819C203.544 237.161 203.939 237.704 204.096 238.332C204.259 238.831 204.478 239.31 204.748 239.76C205.13 240.406 205.629 240.974 206.221 241.436C206.638 241.768 206.906 241.912 206.873 241.938C206.604 241.848 206.351 241.716 206.123 241.546C205.482 241.106 204.936 240.541 204.519 239.884C204.247 239.426 204.028 238.938 203.867 238.43C203.718 237.887 203.368 237.422 202.889 237.126C202.763 237.063 202.623 237.031 202.482 237.031C202.341 237.031 202.201 237.063 202.074 237.126C201.795 237.272 201.554 237.482 201.37 237.739C200.94 238.285 200.625 238.912 200.444 239.584C200.257 240.252 200.241 240.956 200.399 241.631C200.56 242.259 200.831 242.853 201.201 243.385C201.911 244.422 202.72 245.25 203.307 246.026C203.794 246.625 204.177 247.301 204.441 248.027C204.51 248.226 204.558 248.431 204.585 248.64C204.589 248.74 204.585 248.79 204.572 248.79Z" fill="#D1967C"/>
<path d="M186.928 236.024C186.554 236.028 186.194 236.175 185.924 236.435C185.346 237.16 184.924 237.997 184.686 238.893C184.307 239.936 183.981 240.888 183.714 241.566C183.599 241.948 183.421 242.307 183.186 242.629C183.24 242.238 183.34 241.855 183.486 241.488C183.694 240.79 183.988 239.825 184.366 238.775C184.619 237.834 185.1 236.969 185.768 236.259C186 236.051 186.298 235.933 186.609 235.926C186.831 235.9 186.935 235.972 186.928 236.024Z" fill="#D1967C"/>
<path d="M187.424 235.907C187.424 235.946 187.137 236.004 186.661 235.946C186.02 235.855 185.417 235.586 184.92 235.17H185.168L184.744 235.542C183.975 236.267 183.131 236.909 182.227 237.458C182.912 236.652 183.681 235.922 184.523 235.281L184.953 234.916L185.064 234.824L185.168 234.916C185.623 235.304 186.16 235.583 186.739 235.731C186.972 235.77 187.201 235.829 187.424 235.907V235.907Z" fill="#D1967C"/>
<path d="M194.772 247.832C194.872 247.414 195.039 247.015 195.267 246.652C195.755 245.744 196.346 244.895 197.028 244.122C197.709 243.346 198.474 242.648 199.31 242.042C199.641 241.765 200.015 241.545 200.418 241.39C199.322 242.314 198.275 243.296 197.282 244.331C196.381 245.45 195.543 246.619 194.772 247.832V247.832Z" fill="#D1967C"/>
<path d="M155.626 189.399C155.664 189.45 155.693 189.508 155.711 189.569L155.932 190.078L156.741 192.034L159.649 199.271C162.087 205.413 165.432 213.863 169.135 223.193C172.839 232.523 176.118 241.005 178.524 247.154C179.704 250.212 180.663 252.689 181.341 254.43L182.084 256.386C182.162 256.601 182.221 256.771 182.273 256.908C182.298 256.966 182.315 257.027 182.325 257.09C182.292 257.036 182.264 256.98 182.24 256.921C182.184 256.79 182.112 256.621 182.025 256.412C181.83 255.943 181.556 255.284 181.217 254.456L178.302 247.219C175.87 241.077 172.519 232.627 168.816 223.29C165.112 213.954 161.839 205.484 159.427 199.336L156.617 192.06C156.297 191.212 156.05 190.547 155.867 190.071L155.678 189.556C155.658 189.505 155.641 189.452 155.626 189.399V189.399Z" fill="#263238"/>
<path d="M143.863 219.008C145.266 217.993 145.282 215.618 143.898 213.704C142.514 211.79 140.254 211.061 138.85 212.076C137.447 213.091 137.431 215.465 138.815 217.379C140.199 219.294 142.459 220.023 143.863 219.008Z" fill="white"/>
<path d="M454.561 308.174C454.561 308.266 360.491 308.344 244.474 308.344C128.457 308.344 34.3669 308.266 34.3669 308.174C34.3669 308.083 128.444 308.005 244.5 308.005C360.556 308.005 454.561 308.077 454.561 308.174Z" fill="#263238"/>
<path d="M187.222 80.9067H58.9995C56.1656 80.9067 53.8682 83.204 53.8682 86.0379V161.605C53.8682 164.439 56.1656 166.736 58.9995 166.736H187.222C190.056 166.736 192.353 164.439 192.353 161.605V86.0379C192.353 83.204 190.056 80.9067 187.222 80.9067Z" fill="#263238"/>
<path d="M123.111 135.538C128.937 135.538 133.66 130.815 133.66 124.988C133.66 119.162 128.937 114.439 123.111 114.439C117.284 114.439 112.561 119.162 112.561 124.988C112.561 130.815 117.284 135.538 123.111 135.538Z" fill="#F7DF1E"/>
<path d="M120.568 128.072V121.846C120.568 121.776 120.586 121.708 120.621 121.648C120.656 121.588 120.705 121.538 120.765 121.503C120.825 121.468 120.893 121.449 120.963 121.449C121.032 121.448 121.101 121.466 121.161 121.5L126.723 124.636C126.784 124.671 126.834 124.721 126.87 124.782C126.905 124.843 126.924 124.912 126.924 124.982C126.924 125.052 126.905 125.121 126.87 125.182C126.834 125.242 126.784 125.293 126.723 125.327L121.161 128.444C121.099 128.479 121.028 128.497 120.956 128.496C120.884 128.494 120.814 128.473 120.754 128.435C120.693 128.397 120.643 128.343 120.611 128.279C120.578 128.216 120.563 128.144 120.568 128.072Z" fill="white"/>
<path d="M61.7835 156.871V157.132H60.7403V156.956L61.3076 156.421C61.3543 156.388 61.3927 156.344 61.4198 156.293C61.4469 156.242 61.462 156.185 61.464 156.128C61.464 155.998 61.3793 155.926 61.2033 155.926C61.1406 155.923 61.078 155.934 61.0203 155.959C60.9627 155.984 60.9115 156.021 60.8707 156.069L60.6882 155.932C60.7529 155.854 60.8349 155.792 60.9277 155.752C61.0206 155.711 61.1216 155.692 61.2228 155.698C61.5358 155.698 61.7314 155.848 61.7314 156.102C61.7294 156.189 61.7071 156.274 61.6664 156.351C61.6256 156.428 61.5675 156.495 61.4966 156.545L61.1185 156.904L61.7835 156.871Z" fill="white"/>
<path d="M61.94 156.174C61.9391 156.152 61.9427 156.13 61.9505 156.109C61.9583 156.089 61.9701 156.07 61.9854 156.054C62.0006 156.038 62.0188 156.026 62.0391 156.017C62.0593 156.008 62.081 156.004 62.103 156.004C62.1479 156.004 62.1911 156.022 62.2228 156.054C62.2546 156.085 62.2725 156.129 62.2725 156.174C62.2725 156.219 62.2546 156.262 62.2228 156.293C62.1911 156.325 62.1479 156.343 62.103 156.343C62.081 156.343 62.0593 156.339 62.0391 156.33C62.0188 156.321 62.0006 156.309 61.9854 156.293C61.9701 156.277 61.9583 156.258 61.9505 156.238C61.9427 156.217 61.9391 156.196 61.94 156.174ZM61.94 156.943C61.9391 156.921 61.9427 156.899 61.9505 156.879C61.9583 156.858 61.9701 156.839 61.9854 156.823C62.0006 156.808 62.0188 156.795 62.0391 156.786C62.0593 156.778 62.081 156.773 62.103 156.773C62.1479 156.773 62.1911 156.791 62.2228 156.823C62.2546 156.855 62.2725 156.898 62.2725 156.943C62.2725 156.988 62.2546 157.031 62.2228 157.063C62.1911 157.095 62.1479 157.112 62.103 157.112C62.081 157.112 62.0593 157.108 62.0391 157.099C62.0188 157.091 62.0006 157.078 61.9854 157.062C61.9701 157.047 61.9583 157.028 61.9505 157.007C61.9427 156.987 61.9391 156.965 61.94 156.943Z" fill="white"/>
<path d="M62.918 155.685V157.132H62.6507V155.939H62.3573V155.717L62.918 155.685Z" fill="white"/>
<path d="M64.4567 156.773H64.209V157.099H63.9547V156.773H63.1788V156.591L63.896 155.685H64.1764L63.5244 156.552H63.9873V156.271H64.235V156.552H64.4828L64.4567 156.773Z" fill="white"/>
<path d="M174.019 156.213H66.7648V156.702H174.019V156.213Z" fill="white"/>
<path d="M100.206 155.685H66.6866V156.989H100.206V155.685Z" fill="#F7DF1E"/>
<path d="M101.282 156.48C101.282 156.802 101.186 157.118 101.007 157.386C100.828 157.654 100.573 157.863 100.275 157.986C99.9776 158.109 99.6499 158.142 99.3337 158.079C99.0175 158.016 98.727 157.861 98.4991 157.633C98.2711 157.405 98.1159 157.114 98.053 156.798C97.9901 156.482 98.0224 156.154 98.1457 155.856C98.2691 155.558 98.478 155.304 98.7461 155.125C99.0141 154.946 99.3293 154.85 99.6517 154.85C100.084 154.85 100.499 155.022 100.804 155.327C101.11 155.633 101.282 156.048 101.282 156.48Z" fill="#F7DF1E"/>
<path d="M176.692 156.441C176.69 156.505 176.676 156.569 176.648 156.628C176.621 156.686 176.582 156.739 176.534 156.781C176.486 156.824 176.429 156.857 176.368 156.877C176.306 156.897 176.241 156.904 176.177 156.897C175.792 156.897 175.564 156.65 175.564 156.193C175.549 156.096 175.556 155.996 175.585 155.902C175.614 155.808 175.664 155.721 175.731 155.649C175.798 155.577 175.881 155.521 175.973 155.485C176.065 155.45 176.163 155.435 176.262 155.443C176.389 155.44 176.516 155.472 176.627 155.535L176.535 155.73C176.452 155.684 176.357 155.662 176.262 155.665C176.001 155.665 175.831 155.828 175.831 156.147C175.88 156.097 175.939 156.057 176.004 156.031C176.069 156.005 176.139 155.994 176.209 155.998C176.271 155.991 176.333 155.998 176.392 156.017C176.451 156.037 176.505 156.068 176.551 156.11C176.596 156.152 176.633 156.203 176.657 156.26C176.681 156.317 176.693 156.379 176.692 156.441V156.441ZM176.438 156.441C176.438 156.291 176.327 156.2 176.157 156.2C176.123 156.196 176.087 156.2 176.054 156.21C176.021 156.22 175.99 156.237 175.963 156.259C175.936 156.282 175.914 156.31 175.898 156.341C175.882 156.372 175.873 156.406 175.87 156.441C175.87 156.571 175.975 156.676 176.164 156.676C176.196 156.684 176.231 156.686 176.264 156.681C176.297 156.675 176.329 156.663 176.357 156.644C176.386 156.626 176.41 156.602 176.428 156.574C176.446 156.545 176.458 156.513 176.464 156.48L176.438 156.441Z" fill="white"/>
<path d="M176.848 155.952C176.848 155.93 176.851 155.909 176.859 155.888C176.867 155.868 176.879 155.85 176.894 155.835C176.909 155.819 176.928 155.807 176.948 155.799C176.968 155.792 176.99 155.788 177.011 155.789C177.033 155.788 177.055 155.792 177.076 155.799C177.096 155.807 177.115 155.819 177.131 155.834C177.147 155.849 177.159 155.868 177.168 155.888C177.177 155.908 177.181 155.93 177.181 155.952C177.181 155.997 177.163 156.04 177.131 156.072C177.1 156.104 177.056 156.121 177.011 156.121C176.99 156.121 176.968 156.117 176.948 156.108C176.927 156.1 176.909 156.087 176.894 156.071C176.879 156.056 176.867 156.037 176.859 156.016C176.851 155.996 176.848 155.974 176.848 155.952ZM176.848 156.721C176.848 156.7 176.851 156.678 176.859 156.658C176.867 156.638 176.879 156.619 176.894 156.604C176.909 156.589 176.928 156.577 176.948 156.569C176.968 156.561 176.99 156.557 177.011 156.558C177.033 156.557 177.055 156.561 177.076 156.569C177.096 156.577 177.115 156.588 177.131 156.604C177.147 156.619 177.159 156.637 177.168 156.657C177.177 156.678 177.181 156.699 177.181 156.721C177.181 156.766 177.163 156.809 177.131 156.841C177.1 156.873 177.056 156.891 177.011 156.891C176.99 156.891 176.968 156.886 176.948 156.878C176.927 156.869 176.909 156.857 176.894 156.841C176.879 156.825 176.867 156.806 176.859 156.786C176.851 156.765 176.848 156.743 176.848 156.721Z" fill="white"/>
<path d="M177.344 156.174C177.344 155.704 177.598 155.443 177.931 155.443C178.263 155.443 178.524 155.704 178.524 156.174C178.524 156.643 178.27 156.897 177.931 156.897C177.592 156.897 177.344 156.636 177.344 156.174ZM178.257 156.174C178.257 155.828 178.126 155.672 177.931 155.672C177.735 155.672 177.605 155.828 177.605 156.174C177.605 156.519 177.742 156.669 177.931 156.669C178.12 156.669 178.263 156.513 178.263 156.174H178.257Z" fill="white"/>
<path d="M178.707 156.174C178.707 155.704 178.961 155.443 179.293 155.443C179.626 155.443 179.887 155.704 179.887 156.174C179.887 156.643 179.633 156.897 179.293 156.897C178.954 156.897 178.707 156.636 178.707 156.174ZM179.626 156.174C179.626 155.828 179.489 155.672 179.293 155.672C179.098 155.672 178.967 155.828 178.967 156.174C178.967 156.519 179.104 156.669 179.293 156.669C179.483 156.669 179.626 156.513 179.626 156.174Z" fill="white"/>
<path d="M182.169 156.082H181.68V154.674H183.088V155.163H182.169V156.082Z" fill="white"/>
<path d="M183.088 157.921H181.68V156.519H182.169V157.432H183.088V157.921Z" fill="white"/>
<path d="M185.338 157.921H183.929V157.432H184.849V156.513H185.338V157.921Z" fill="white"/>
<path d="M185.338 156.082H184.849V155.163H183.929V154.674H185.338V156.082Z" fill="white"/>
<path d="M167.088 89.2458C167.335 89.1977 167.586 89.1759 167.838 89.1805C168.34 89.1805 169.09 89.1284 170.002 89.1088H170.172V89.2458C170.172 90.3411 170.172 91.593 170.205 92.9556V93.3664L169.911 93.073L169.52 92.6818L168.529 91.6908H168.757L167.212 93.0599L166.958 93.2816V92.9491C166.958 91.8081 167.003 90.8562 167.029 90.2172C167.024 89.8895 167.05 89.562 167.108 89.2392C167.108 89.2392 167.147 89.6565 167.179 90.3085C167.212 90.9605 167.238 91.8733 167.251 92.9165L167.003 92.8057L168.529 91.4104L168.646 91.3061L168.757 91.4169L169.755 92.4079L170.139 92.7926L169.853 92.9165C169.853 91.5538 169.853 90.3085 169.853 89.2066L169.989 89.3435C169.135 89.3435 168.425 89.2979 167.91 89.2718C167.635 89.2823 167.361 89.2736 167.088 89.2458Z" fill="white"/>
<path d="M177.813 89.7087C177.588 90.023 177.346 90.3255 177.09 90.615C176.607 91.2018 175.89 92.082 175.016 93.06L174.736 93.3794V92.9557C174.736 92.3754 174.736 91.756 174.736 91.117V90.9344L174.788 91.0583L173.484 89.8L173.197 89.5196H173.595C174.899 89.5196 175.968 89.5913 176.699 89.6304C177.429 89.6696 177.846 89.6891 177.813 89.7022C177.781 89.7152 177.305 89.7022 176.549 89.7608C175.792 89.8195 174.782 89.8391 173.595 89.8391L173.706 89.5652L175.01 90.804L175.062 90.8562V91.1105C175.062 91.7625 175.062 92.3688 175.062 92.9491L174.782 92.8383C175.603 91.9385 176.346 91.1887 176.894 90.628C177.442 90.0673 177.781 89.7282 177.813 89.7087Z" fill="white"/>
<path d="M177.813 89.7087C177.853 89.8 177.227 90.139 176.418 90.478C175.949 90.7341 175.432 90.8895 174.899 90.9344C175.771 90.3207 176.765 89.9025 177.813 89.7087V89.7087Z" fill="white"/>
<path d="M183.042 89.2458C183.213 89.1989 183.393 89.1989 183.564 89.2458C184.042 89.3372 184.472 89.5961 184.777 89.976C185.008 90.2639 185.162 90.6061 185.223 90.9701C185.285 91.3342 185.252 91.7079 185.129 92.0559C184.978 92.4886 184.695 92.8635 184.322 93.1288C183.948 93.3941 183.501 93.5366 183.042 93.5366C182.584 93.5366 182.137 93.3941 181.763 93.1288C181.389 92.8635 181.107 92.4886 180.956 92.0559C180.833 91.7083 180.8 91.3351 180.86 90.9713C180.921 90.6075 181.073 90.2651 181.302 89.976C181.608 89.5921 182.039 89.3288 182.521 89.2327C182.692 89.1858 182.872 89.1858 183.042 89.2327C183.042 89.2653 182.86 89.2718 182.553 89.3631C182.127 89.4947 181.756 89.7627 181.497 90.1259C181.288 90.4116 181.161 90.7497 181.132 91.1028C181.103 91.456 181.172 91.8102 181.332 92.1263C181.492 92.4424 181.737 92.7079 182.039 92.8934C182.341 93.0789 182.688 93.1771 183.042 93.1771C183.397 93.1771 183.744 93.0789 184.046 92.8934C184.348 92.7079 184.592 92.4424 184.753 92.1263C184.913 91.8102 184.982 91.456 184.953 91.1028C184.924 90.7497 184.797 90.4116 184.588 90.1259C184.329 89.7627 183.958 89.4947 183.531 89.3631C183.212 89.2849 183.042 89.2784 183.042 89.2458Z" fill="white"/>
<path d="M183.747 92.1928C183.681 92.258 183.232 91.919 182.743 91.4365L182.697 91.3843V91.28C182.697 90.5889 182.769 90.0282 182.866 90.0282C182.964 90.0282 183.036 90.5889 183.036 91.28L182.984 91.1627C183.473 91.6777 183.812 92.1276 183.747 92.1928Z" fill="white"/>
<path d="M132.884 92.0559C132.884 92.1537 118.651 92.2254 101.099 92.2254C83.5473 92.2254 69.3076 92.1537 69.3076 92.0559C69.3076 91.9581 83.5407 91.8864 101.099 91.8864C118.657 91.8864 132.884 91.9646 132.884 92.0559Z" fill="white"/>
<path d="M63.7982 94.5661C65.1846 94.5661 66.3084 93.4422 66.3084 92.0559C66.3084 90.6695 65.1846 89.5457 63.7982 89.5457C62.4119 89.5457 61.288 90.6695 61.288 92.0559C61.288 93.4422 62.4119 94.5661 63.7982 94.5661Z" fill="white"/>
<path d="M443.7 55.3C443.6 54.3 443.4 53.4 443.2 52.7C442.8 51.3 442.5 50.4 442.2 49.8C441.9 49.1 441.6 48.7 441.3 48.3C440.8 47.5 440.3 47 439.8 46.6C438.9 45.8 438.1 45.2 437.3 44.7C435.7 43.8 434.1 43.2 432.6 42.6C429.5 41.6 426.4 41 423.4 40.5C417.3 39.5 411.2 39.1 405.1 38.6C403.6 38.5 402.1 38.3 400.6 38C400.2 37.9 402.6 37.1 403.8 36.7C409.8 35.1 415.9 34.1 422 33.5C415.9 33 409.8 32.8 403.7 33.2C396 33.8 394.2 36 394.5 39.6C394.6 40.5 394.8 40.7 394.9 41C395 41.2 395.1 41.4 395.2 41.5C395.4 41.7 395.5 41.8 395.6 42C396.5 42.8 397.2 43.2 398 43.6C398.8 44 399.5 44.3 400.3 44.6C401.8 45.2 403.3 45.6 404.9 46.1C411 47.9 417 49.6 422.9 51.9C425.9 53 428.8 54.3 431.7 55.9C432.8 56.5 412.1 70 406.1 70.7L406.8 90.2C412.9 88.1 419 85.8 425.1 82.3C426.6 81.4 428.2 80.5 429.7 79.4C431.2 78.3 432.7 77.2 434.2 76C435.7 74.7 437.2 73.4 438.8 71.6C439.6 70.6 440.4 69.7 441.3 68C441.8 67.1 442.3 66.2 442.9 63.9C443.2 62.8 443.5 61.1 443.6 58.8C443.9 57.5 443.8 56.4 443.7 55.3" fill="#8CC63E"/>
<path d="M432.5 58.6C429.6 56.3 426.4 54.6 423.1 53.1C419.8 51.6 416.5 50.4 413.1 49.2C409.7 48 406.4 47 403 45.8C401.3 45.2 399.6 44.6 398 43.8C397.2 43.4 396.4 42.9 395.6 42.2C395.2 41.8 394.9 41.4 394.7 40.9C394.5 40.4 394.4 39.8 394.4 39.1C394.4 39.7 394.2 41.6 398.1 43.3C399.7 44 401.5 44.3 403.2 44.8C406.6 45.6 410 46.3 413.5 47.2C416.9 48 420.4 48.9 423.8 50C427.2 51.2 430.6 52.6 433.9 54.7L432.5 58.6" fill="#FFD93B"/>
<path d="M400 37.4C401.9 36.7 403.7 36.3 405.5 35.8C407.3 35.4 409.2 35 411 34.7C414.7 34.1 418.4 33.7 422 33.6C418.3 34 414.7 34.7 411 35.6L405.6 37.1C403.8 37.7 402 38.3 400.3 39.1L400 37.4Z" fill="#FFD93B"/>
<path d="M428 64.6L425.7 60.6C430.3 57.7 431.1 55.6 431.4 53.7C431.7 51.9 431.1 50.4 429.9 49.3L432.2 44.1C434.9 46.6 436.2 50.6 435.6 54.9C434.9 59.8 431.9 63.6 428 64.6" fill="#8CC63E"/>
<path d="M404.9 40.4C399.6 40 398.7 39.3 398.7 36H399.9C399.9 37.8 399.9 38.2 405 38.7L404.9 40.4Z" fill="#8CC63E"/>
<path d="M413.7 82.5L416.1 81.9C416.9 81.7 417.6 81.5 418.4 81.3C419.9 80.9 421.5 80.4 423 79.8C426 78.7 429.1 77.3 431.9 75.6C434.8 73.8 437.6 71.7 439.9 68.8C441 67.3 442.1 65.6 442.8 63.6C443.5 61.6 443.9 59.4 443.8 57.1C444.1 59.4 444 61.8 443.5 64C443 66.3 442.1 68.4 441 70.2C438.9 73.9 436.2 76.9 433.3 79.4C425.3 87.4 414.2 87.7 414.2 87.7L413.7 82.5" fill="#FFD93B"/>
<path d="M384.1 81.4C384.4 80.2 385.6 79.1 386.7 79.4C387.8 79.7 388.4 81.2 388.1 82.4C387.8 83.6 386.8 83.9 385.7 83.7C384.6 83.4 383.8 82.7 384.1 81.4" fill="#E8F94B"/>
<path d="M384.9 81.7C385.1 80.9 385.8 80.3 386.5 80.4C387.2 80.6 387.5 81.5 387.3 82.3C387.1 83.1 386.5 83.3 385.8 83.1C385.2 82.9 384.7 82.4 384.9 81.7Z" fill="#252728"/>
<path d="M384 81.4C384.3 80.1 385.6 78.9 386.8 79.2C388 79.5 388.6 81.1 388.3 82.5C386.4 80.9 384 81.4 384 81.4Z" fill="#4B662B"/>
<path d="M385.1 85.5C384.7 75.7 398.1 70.4 406.6 70C415 69.6 421.9 69.8 422.4 79.6C422.8 89.4 416 90.7 407.6 91.8C398.8 93.1 385.6 95.4 385.1 85.5" fill="#8CC63E"/>
<path d="M390 86.2C389.7 87.1 389.1 87.9 388.8 87.8C388.4 87.7 388.4 86.7 388.7 85.8C389 84.9 389.4 84.4 389.8 84.6C390.1 84.6 390.3 85.2 390 86.2Z" fill="#4B662B"/>
<path d="M386.8 85.3C386.8 85.9 386.6 86.5 386.3 86.5C386.1 86.5 385.9 85.9 385.9 85.2C385.9 84.6 386.1 84.2 386.4 84.2C386.7 84.2 386.8 84.6 386.8 85.3" fill="#4B662B"/>
<path d="M394.9 83.3C394.9 80.6 397 77.7 399.6 77.7C402.2 77.7 404.3 80.6 404.3 83.3C404.3 86 402.2 87.2 399.6 87.2C397 87.2 394.9 86 394.9 83.3" fill="#E8F94B"/>
<path d="M396.7 83.5C396.7 81.8 398 80 399.6 80C401.2 80 402.5 81.8 402.5 83.5C402.5 85.2 401.2 85.9 399.6 85.9C398 85.9 396.7 85.1 396.7 83.5" fill="#252728"/>
<path d="M394.6 83.4C394.6 80.5 396.8 77.4 399.6 77.4C402.4 77.4 404.6 80.5 404.6 83.4C399.6 81 394.6 83.4 394.6 83.4" fill="#4B662B"/>
<path d="M421.3 63.3C426.6 64.1 433.5 66.1 436.3 69.6C436.3 69.6 434.3 62.4 428.1 58.9C427.9 59.1 427.6 59.3 427.4 59.5C425.6 60.6 423.5 61.9 421.3 63.3" fill="#4B662B"/>
<path d="M426 75.7C426 75.7 424.6 68.7 418.9 64.7C416.5 66.1 414.1 67.4 411.9 68.5C417.1 69.7 423.6 72.1 426 75.7Z" fill="#4B662B"/>
<path d="M429.4 57.6C433.6 57 439.6 57.4 442.3 58.6C442.3 58.6 438.5 53.7 431.4 53.2C431.4 53.2 431.1 55.7 429.4 57.6Z" fill="#4B662B"/>
<path d="M441.4 48.3C440.9 47.5 440.4 47 439.9 46.6C439.5 46.3 439.2 46 438.9 45.7C433.5 47.3 431.8 51.5 431.8 51.5C434.1 49.6 438.3 50 442.3 49.8V49.7C441.9 49.1 441.6 48.6 441.4 48.3Z" fill="#4B662B"/>
<path d="M404.3 43.1C404.9 41.5 406.9 40 408.8 38.9C407.7 38.8 406.6 38.7 405.4 38.6C404.2 40.8 404.3 43.1 404.3 43.1Z" fill="#4B662B"/>
<path d="M398.4 41.2C399.5 39.9 402.3 39 404.5 38.6C403.7 38.5 403 38.4 402.2 38.3C401.5 38.2 401 38 400.7 37.9C398.9 39.4 398.4 41.2 398.4 41.2Z" fill="#4B662B"/>
<path d="M429.7 41.8C427.4 45.8 427.2 49.7 427.2 49.7C428.4 47.2 431.3 45.1 434.5 43.3C433.9 43 433.2 42.8 432.6 42.6C431.6 42.3 430.7 42.1 429.7 41.8" fill="#4B662B"/>
<path d="M415.4 45.6C416.1 43.5 418.8 41.6 421.3 40.2C419.9 40 418.5 39.8 417 39.7C415.2 42.4 415.4 45.6 415.4 45.6Z" fill="#4B662B"/>
<path d="M422.3 40.4C421 43.9 421 47 421 47C421.9 44.9 424 42.8 426.4 41.1L423.4 40.5C423 40.5 422.7 40.4 422.3 40.4Z" fill="#4B662B"/>
<path d="M409.9 44.8C410.6 42.8 413.2 40.9 415.5 39.5C414.1 39.4 412.7 39.2 411.3 39.1C409.8 41.8 409.9 44.8 409.9 44.8" fill="#4B662B"/>
<path d="M399.6 37.6C399.6 37.6 397.7 36.4 395.3 36.2C394.8 36.9 394.6 37.8 394.5 38.8C396.2 37.9 398.1 37.3 399.6 37.6" fill="#4B662B"/>
<path d="M400.9 36.6C400.9 36.6 400.7 35.2 400 33.7C399.3 33.8 398.7 34 398.2 34.2C399.4 34.9 400.4 35.7 400.9 36.6Z" fill="#4B662B"/>
<path d="M412.5 33.9V33H412.1C412.2 33.3 412.4 33.6 412.5 33.9Z" fill="#4B662B"/>
<path d="M407.7 34.9C407.7 34.9 407.7 34.1 407.6 33.1H406.6C407.1 33.7 407.5 34.3 407.7 34.9" fill="#4B662B"/>
<path d="M416.9 33.6V33.2H416.7C416.8 33.3 416.9 33.5 416.9 33.6Z" fill="#4B662B"/>
<path d="M404.1 33.2H403.7C403.4 33.2 403.1 33.3 402.7 33.3C403.4 34 404 34.8 404.3 35.5C404.3 35.5 404.3 34.5 404.1 33.2" fill="#4B662B"/>
<path d="M414.9 33.6V33.1H414.7C414.8 33.3 414.9 33.4 414.9 33.6Z" fill="#4B662B"/>
<path d="M410.2 34.3C410.2 34.3 410.2 33.8 410.1 33H409.4C409.8 33.4 410.1 33.9 410.2 34.3Z" fill="#4B662B"/>
<path d="M395.046 123.123C395.525 122.974 396.033 122.939 396.528 123.022C397.022 123.104 397.491 123.302 397.895 123.599C398.299 123.896 398.628 124.285 398.855 124.732C399.081 125.18 399.2 125.674 399.2 126.176V145.462C398.154 145.166 397.083 144.968 396 144.87V135.776L373.6 142.778V165.6C373.6 167.402 372.991 169.152 371.873 170.565C370.755 171.978 369.192 172.972 367.438 173.386C365.684 173.8 363.842 173.61 362.209 172.846C360.577 172.082 359.251 170.79 358.445 169.178C357.639 167.566 357.401 165.729 357.769 163.965C358.137 162.201 359.09 160.613 360.474 159.458C361.858 158.303 363.591 157.65 365.392 157.603C367.194 157.556 368.958 158.119 370.4 159.2V133.178C370.4 132.495 370.618 131.831 371.022 131.281C371.426 130.731 371.995 130.325 372.646 130.122L395.046 123.123V123.123ZM373.6 139.424L396 132.422V126.176L373.6 133.178V139.424ZM365.6 160.8C364.327 160.8 363.106 161.306 362.206 162.206C361.306 163.106 360.8 164.327 360.8 165.6C360.8 166.873 361.306 168.094 362.206 168.994C363.106 169.894 364.327 170.4 365.6 170.4C366.873 170.4 368.094 169.894 368.994 168.994C369.894 168.094 370.4 166.873 370.4 165.6C370.4 164.327 369.894 163.106 368.994 162.206C368.094 161.306 366.873 160.8 365.6 160.8ZM408.8 162.4C408.8 166.219 407.283 169.882 404.582 172.582C401.882 175.283 398.219 176.8 394.4 176.8C390.581 176.8 386.918 175.283 384.218 172.582C381.517 169.882 380 166.219 380 162.4C380 158.581 381.517 154.918 384.218 152.218C386.918 149.517 390.581 148 394.4 148C398.219 148 401.882 149.517 404.582 152.218C407.283 154.918 408.8 158.581 408.8 162.4V162.4ZM401.552 161.005L391.971 155.725C391.728 155.591 391.453 155.523 391.175 155.527C390.897 155.531 390.625 155.608 390.386 155.749C390.146 155.891 389.948 156.092 389.81 156.334C389.673 156.575 389.6 156.848 389.6 157.126V167.686C389.6 167.964 389.673 168.238 389.81 168.479C389.948 168.721 390.146 168.922 390.386 169.064C390.625 169.205 390.897 169.282 391.175 169.286C391.453 169.29 391.728 169.222 391.971 169.088L401.552 163.808C401.803 163.67 402.012 163.467 402.158 163.22C402.303 162.974 402.38 162.693 402.38 162.406C402.38 162.12 402.303 161.839 402.158 161.592C402.012 161.346 401.803 161.143 401.552 161.005Z" fill="#F7DF1E"/>
</svg>
