<svg width="19" height="25" viewBox="0 0 19 25" fill="none" xmlns="http://www.w3.org/2000/svg">
<path d="M2.10767 17.6613H5.82424C6.40267 17.6613 6.87117 18.1298 6.87117 18.7082V22.4248H13.4144V6.09277H2.10767V17.6613Z" fill="black" fill-opacity="0.15"/>
<path d="M17.8114 0.858154H3.78263C3.66747 0.858154 3.57324 0.952377 3.57324 1.06754V2.53323C3.57324 2.64839 3.66747 2.74262 3.78263 2.74262H16.7645V20.7497C16.7645 20.8649 16.8587 20.9591 16.9739 20.9591H18.4396C18.5547 20.9591 18.6489 20.8649 18.6489 20.7497V1.69569C18.6489 1.23243 18.2747 0.858154 17.8114 0.858154Z" fill="black"/>
<path d="M14.4613 4.20825H1.06068C0.59742 4.20825 0.223145 4.58253 0.223145 5.04579V18.9358C0.223145 19.1583 0.312133 19.3703 0.469171 19.5274L5.00497 24.0632C5.06255 24.1207 5.12798 24.1678 5.19865 24.2071V24.2568H5.30857C5.40018 24.2909 5.49702 24.3092 5.59648 24.3092H14.4613C14.9246 24.3092 15.2988 23.9349 15.2988 23.4716V5.04579C15.2988 4.58253 14.9246 4.20825 14.4613 4.20825ZM5.19603 21.5924L2.94253 19.3363H5.19603V21.5924ZM13.4144 22.4247H6.87111V18.7081C6.87111 18.1297 6.40261 17.6612 5.82418 17.6612H2.10761V6.09271H13.4144V22.4247Z" fill="black"/>
</svg>
