<svg width="47" height="47" viewBox="0 0 47 47" fill="none" xmlns="http://www.w3.org/2000/svg">
<g clip-path="url(#clip0_234_107)">
<path d="M25.4313 5.30225C14.1849 5.30225 5.06592 14.4212 5.06592 25.6676C5.06592 36.9141 14.1849 46.033 25.4313 46.033C36.6777 46.033 45.7967 36.9141 45.7967 25.6676C45.7967 14.4212 36.6777 5.30225 25.4313 5.30225ZM34.1593 26.7586C34.1593 26.9586 33.9957 27.1223 33.7957 27.1223H26.886V34.032C26.886 34.232 26.7223 34.3957 26.5223 34.3957H24.3403C24.1403 34.3957 23.9766 34.232 23.9766 34.032V27.1223H17.0669C16.8669 27.1223 16.7033 26.9586 16.7033 26.7586V24.5766C16.7033 24.3766 16.8669 24.213 17.0669 24.213H23.9766V17.3033C23.9766 17.1033 24.1403 16.9396 24.3403 16.9396H26.5223C26.7223 16.9396 26.886 17.1033 26.886 17.3033V24.213H33.7957C33.9957 24.213 34.1593 24.3766 34.1593 24.5766V26.7586Z" fill="white"/>
</g>
<defs>
<clipPath id="clip0_234_107">
<rect width="46.5494" height="46.5494" fill="white"/>
</clipPath>
</defs>
</svg>
